<svg width="155" height="21" viewBox="0 0 155 21" fill="none" xmlns="http://www.w3.org/2000/svg">
<path fill-rule="evenodd" clip-rule="evenodd" d="M7.2794 19.5519C10.2499 15.9462 13 12.6079 13 9.30566C13 5.71581 10.0899 2.80566 6.5 2.80566C2.91015 2.80566 0 5.71581 0 9.30566C0 12.6079 2.75015 15.9462 5.7206 19.5519C5.97929 19.8659 6.23964 20.1819 6.5 20.5001C6.76036 20.1819 7.02071 19.8659 7.2794 19.5519ZM6.50004 11.4724C7.89609 11.4724 9.02781 10.3406 9.02781 8.94459C9.02781 7.54853 7.89609 6.41681 6.50004 6.41681C5.10398 6.41681 3.97226 7.54853 3.97226 8.94459C3.97226 10.3406 5.10398 11.4724 6.50004 11.4724Z" fill="#D9D9D9"/>
<path d="M30.8984 10.1602H28.3984C29.0384 12.2502 30.4984 14.1702 32.5284 14.9702C32.3984 15.0802 32.2684 15.2302 32.1684 15.3902C32.1084 15.5002 32.0784 15.5402 32.0284 15.5402C31.9984 15.5402 31.9484 15.5202 31.8784 15.4802C30.1484 14.5702 28.6984 12.8302 28.0484 10.6802C27.9184 11.3002 27.7384 11.8702 27.4984 12.3702C26.8084 13.7902 25.8084 14.7402 24.2684 15.5102C24.1884 15.5402 24.1484 15.5602 24.1084 15.5602C24.0584 15.5602 24.0284 15.5202 23.9584 15.4202C23.8484 15.2802 23.7184 15.1702 23.5884 15.0802C25.2784 14.3802 26.3384 13.3202 26.9184 12.1202C27.2084 11.5202 27.3884 10.8802 27.4984 10.1602H25.2084C24.2484 10.1602 23.9284 10.1802 23.8784 10.1802C23.8084 10.1802 23.7984 10.1702 23.7984 10.0902V9.63024C23.7984 9.56024 23.8084 9.55024 23.8784 9.55024C23.9284 9.55024 24.2484 9.57024 25.2084 9.57024H27.5684C27.6184 9.07024 27.6384 8.54024 27.6484 7.97024C27.6584 7.41024 27.6484 7.14024 27.5984 6.84024C27.8284 6.85024 28.1084 6.87024 28.3084 6.90024C28.4084 6.92024 28.4484 6.96024 28.4484 7.01024C28.4484 7.09024 28.4184 7.13024 28.3884 7.20024C28.3384 7.30024 28.3184 7.49024 28.3084 7.95024C28.2984 8.51024 28.2684 9.05024 28.2084 9.57024H30.8984C31.8584 9.57024 32.1784 9.55024 32.2284 9.55024C32.2984 9.55024 32.3084 9.56024 32.3084 9.63024V10.0902C32.3084 10.1702 32.2984 10.1802 32.2284 10.1802C32.1784 10.1802 31.8584 10.1602 30.8984 10.1602ZM40.1884 9.33024H40.0884C40.2184 9.95024 40.4084 10.5902 40.6584 11.2002C40.9084 10.9202 41.1484 10.6102 41.3184 10.3302C41.4184 10.1702 41.4884 10.0502 41.5384 9.90024C41.7184 10.0002 41.8884 10.1002 42.0184 10.1902C42.0984 10.2502 42.1284 10.2802 42.1284 10.3302C42.1284 10.3802 42.0784 10.4202 42.0184 10.4602C41.9384 10.5102 41.8484 10.6202 41.6684 10.8402C41.4584 11.1002 41.1684 11.4202 40.8684 11.7102C41.3384 12.7102 41.9484 13.6202 42.6884 14.2502C42.5684 14.3602 42.4684 14.4902 42.3884 14.6502C42.3484 14.7402 42.3184 14.7902 42.2784 14.7902C42.2384 14.7902 42.2084 14.7502 42.1484 14.6902C40.9384 13.4402 39.9884 11.3902 39.5584 9.33024H39.4984C39.2384 9.64024 38.9784 9.91024 38.7084 10.1502C39.7084 11.3002 40.0484 12.4802 40.0484 13.8802C40.0484 15.0702 39.7684 15.5402 38.8084 15.5402C38.5984 15.5402 38.4184 15.5302 38.2384 15.5202C38.0984 15.5002 38.0984 15.5002 38.0484 15.3002C38.0084 15.1602 37.9584 15.0302 37.8684 14.9102C38.2484 14.9602 38.5184 14.9802 38.7784 14.9802C39.1884 14.9802 39.4984 14.8202 39.4984 13.8602C39.4984 13.5202 39.4784 13.2002 39.4384 12.8902C38.6784 13.7502 37.6484 14.4702 36.4484 14.9902C36.3784 15.0202 36.3284 15.0402 36.2984 15.0402C36.2484 15.0402 36.2184 15.0002 36.1584 14.8902C36.0884 14.7702 35.9784 14.6502 35.8784 14.5802C37.2384 14.0802 38.3784 13.3602 39.3084 12.2802C39.2384 12.0402 39.1484 11.7902 39.0284 11.5502C38.4284 12.1402 37.7484 12.6002 36.9184 12.9802C36.8484 13.0102 36.8084 13.0302 36.7784 13.0302C36.7284 13.0302 36.6984 12.9902 36.6384 12.8902C36.5784 12.7802 36.4584 12.6302 36.3684 12.5702C37.3284 12.2202 38.0784 11.7502 38.7584 11.0802C38.6284 10.8902 38.4784 10.6902 38.3084 10.4802C37.8684 10.8202 37.3884 11.0902 36.8084 11.3202C36.6284 11.3902 36.6184 11.3802 36.5284 11.2102C36.4584 11.0802 36.3584 10.9602 36.2784 10.9002C37.3484 10.5402 38.1484 10.1102 38.8284 9.33024H38.5384C37.6484 9.33024 37.3684 9.35024 37.3084 9.35024C37.2384 9.35024 37.2284 9.34024 37.2284 9.26024V8.88024C37.2284 8.81024 37.2384 8.80024 37.3084 8.80024C37.3684 8.80024 37.6484 8.82024 38.5384 8.82024H40.2784C41.1684 8.82024 41.4484 8.80024 41.5084 8.80024C41.5784 8.80024 41.5884 8.81024 41.5884 8.88024V9.26024C41.5884 9.34024 41.5784 9.35024 41.5084 9.35024C41.4484 9.35024 41.1684 9.33024 40.1884 9.33024ZM36.4584 9.46024V9.88024C36.4584 9.95024 36.4484 9.96024 36.3684 9.96024C36.3184 9.96024 36.1284 9.94024 35.4784 9.94024H35.3284V12.7402C35.6584 12.6002 35.9884 12.4502 36.3184 12.2602C36.2884 12.3702 36.2784 12.5002 36.2884 12.6402C36.2984 12.8402 36.2984 12.8402 36.1184 12.9302C35.5584 13.2302 34.9184 13.4802 34.2884 13.7202C34.0784 13.8002 33.9784 13.8402 33.9384 13.8802C33.8984 13.9202 33.8584 13.9502 33.8084 13.9502C33.7684 13.9502 33.7284 13.9202 33.6984 13.8502C33.6284 13.7002 33.5584 13.5102 33.4984 13.3102C33.7784 13.2602 34.0184 13.1902 34.3284 13.0902C34.4684 13.0502 34.6084 13.0002 34.7484 12.9502V9.94024H34.6184C33.9684 9.94024 33.7784 9.96024 33.7184 9.96024C33.6584 9.96024 33.6484 9.95024 33.6484 9.88024V9.46024C33.6484 9.39024 33.6584 9.38024 33.7184 9.38024C33.7784 9.38024 33.9684 9.40024 34.6184 9.40024H34.7484V8.23024C34.7484 7.52024 34.7384 7.25024 34.6784 6.85024C34.9384 6.86024 35.1284 6.89024 35.3184 6.91024C35.3884 6.92024 35.4384 6.95024 35.4384 7.00024C35.4384 7.05024 35.4184 7.10024 35.3884 7.18024C35.3584 7.29024 35.3284 7.54024 35.3284 8.21024V9.40024H35.4784C36.1284 9.40024 36.3184 9.38024 36.3684 9.38024C36.4484 9.38024 36.4584 9.39024 36.4584 9.46024ZM42.3184 7.78024V8.07024C42.3184 8.72024 42.3384 8.81024 42.3384 8.86024C42.3384 8.93024 42.3284 8.94024 42.2584 8.94024H41.8184C41.7484 8.94024 41.7384 8.93024 41.7384 8.86024V7.88024H37.0584V8.86024C37.0584 8.93024 37.0484 8.94024 36.9784 8.94024H36.5484C36.4784 8.94024 36.4684 8.93024 36.4684 8.86024C36.4684 8.81024 36.4884 8.72024 36.4884 8.07024V7.83024C36.4884 7.59024 36.4684 7.47024 36.4684 7.42024C36.4684 7.35024 36.4784 7.34024 36.5484 7.34024C36.6084 7.34024 36.9584 7.36024 37.9484 7.36024H40.8584C41.8484 7.36024 42.2084 7.34024 42.2584 7.34024C42.3284 7.34024 42.3384 7.35024 42.3384 7.42024C42.3384 7.47024 42.3184 7.59024 42.3184 7.78024ZM51.5684 10.7002H50.5784C50.7784 12.4902 51.3984 14.1002 52.7284 15.1302C52.6084 15.2102 52.4884 15.3102 52.3784 15.4602C52.3184 15.5402 52.2884 15.5802 52.2584 15.5802C52.2284 15.5802 52.1984 15.5502 52.1284 15.4902C50.8284 14.3502 50.2484 12.7202 50.0184 10.7002H49.0184C48.9984 11.3702 48.9584 11.9502 48.8884 12.5702C48.7584 13.5802 48.4584 14.6502 47.8284 15.5002C47.7784 15.5702 47.7484 15.6102 47.7184 15.6102C47.6884 15.6102 47.6584 15.5702 47.5884 15.5102C47.4684 15.3902 47.3284 15.3002 47.1984 15.2402C47.9184 14.4502 48.1884 13.4502 48.3284 12.3402C48.4584 11.3402 48.4584 10.3302 48.4584 8.79024C48.4584 7.86024 48.4384 7.46024 48.4384 7.41024C48.4384 7.34024 48.4484 7.33024 48.5184 7.33024C48.5784 7.33024 48.8284 7.35024 49.6384 7.35024H50.9684C51.7584 7.35024 52.0284 7.33024 52.0784 7.33024C52.1484 7.33024 52.1584 7.34024 52.1584 7.41024C52.1584 7.46024 52.1384 7.72024 52.1384 8.41024V10.1002C52.1384 10.8002 52.1584 11.0202 52.1584 11.0802C52.1584 11.1502 52.1484 11.1602 52.0784 11.1602H51.6484C51.5784 11.1602 51.5684 11.1502 51.5684 11.0802V10.7002ZM51.5684 10.1802V7.88024H49.0384V8.86024C49.0384 9.36024 49.0384 9.79024 49.0284 10.1802H51.5684ZM47.8184 7.21024V7.59024C47.8184 7.66024 47.8084 7.67024 47.7384 7.67024C47.6884 7.67024 47.4484 7.65024 46.7584 7.65024H46.3384V8.61024H46.4884C47.2084 8.61024 47.4184 8.59024 47.4684 8.59024C47.5384 8.59024 47.5484 8.60024 47.5484 8.67024V9.01024C47.5484 9.08024 47.5384 9.09024 47.4684 9.09024C47.4184 9.09024 47.2084 9.07024 46.4884 9.07024H46.3384V10.0302H46.4884C47.2084 10.0302 47.4184 10.0102 47.4684 10.0102C47.5384 10.0102 47.5484 10.0202 47.5484 10.0902V10.4302C47.5484 10.5002 47.5384 10.5102 47.4684 10.5102C47.4184 10.5102 47.2084 10.4902 46.4884 10.4902H46.3384V11.4902H46.6884C47.3584 11.4902 47.5584 11.4702 47.6184 11.4702C47.6784 11.4702 47.7084 11.4902 47.6984 11.5602C47.6884 11.7502 47.6784 11.9302 47.6684 12.1202C47.5984 13.7402 47.4184 14.5202 47.2484 14.9102C47.0784 15.2602 46.7484 15.4602 46.3784 15.4602C46.2084 15.4602 45.9784 15.4502 45.8084 15.4402C45.6884 15.4302 45.6684 15.4302 45.6384 15.2302C45.6084 15.0602 45.5684 14.9502 45.5084 14.8302C45.8184 14.8702 46.1184 14.8902 46.2884 14.8902C46.5184 14.8902 46.6584 14.7802 46.7584 14.6002C46.9184 14.3202 47.0684 13.5802 47.1284 11.9602H45.3184C44.5784 11.9602 44.3284 11.9802 44.2484 11.9802C44.1784 11.9802 44.1684 11.9702 44.1684 11.8902C44.1684 11.8402 44.1884 11.5002 44.1884 10.8202V8.42024C44.1884 7.60024 44.1684 7.27024 44.1684 7.21024C44.1684 7.14024 44.1784 7.13024 44.2484 7.13024C44.3284 7.13024 44.5784 7.15024 45.3184 7.15024H46.7584C47.4484 7.15024 47.6884 7.13024 47.7384 7.13024C47.8084 7.13024 47.8184 7.14024 47.8184 7.21024ZM45.8184 11.4902V10.4902H44.7284V11.4902H45.8184ZM45.8184 10.0302V9.07024H44.7284V10.0302H45.8184ZM45.8184 8.61024V7.65024H44.7284V8.61024H45.8184ZM44.2484 12.5102L44.4284 12.5702C44.5484 12.6102 44.5484 12.6102 44.5384 12.6902C44.4884 13.4402 44.3984 14.1202 44.0984 14.8002C44.0684 14.8702 44.0484 14.8702 43.9584 14.8102L43.7184 14.6502C43.6384 14.6002 43.6284 14.5902 43.6584 14.5202C43.9084 13.9602 44.0384 13.3502 44.0984 12.5502C44.1084 12.4702 44.1184 12.4702 44.2484 12.5102ZM44.8584 12.6202L45.0484 12.5702C45.1384 12.5502 45.1584 12.5502 45.1684 12.6102C45.2784 13.1402 45.3384 13.6302 45.3684 14.2102C45.3684 14.3002 45.3584 14.3102 45.2684 14.3402L45.0584 14.4102C44.9684 14.4402 44.9484 14.4402 44.9484 14.3502C44.9284 13.7402 44.8784 13.2502 44.7784 12.7202C44.7584 12.6402 44.7784 12.6402 44.8584 12.6202ZM45.5684 12.5502L45.7184 12.5002C45.7984 12.4702 45.8184 12.4702 45.8384 12.5402C45.9684 12.9402 46.0684 13.3802 46.1384 13.8902C46.1484 13.9602 46.1384 13.9702 46.0584 14.0002L45.8884 14.0702C45.7984 14.1102 45.7784 14.1002 45.7684 14.0302C45.7084 13.5102 45.6284 13.0502 45.4984 12.6502C45.4784 12.5802 45.4884 12.5802 45.5684 12.5502ZM46.2184 12.4402L46.3384 12.3902C46.4184 12.3602 46.4384 12.3602 46.4684 12.4202C46.6084 12.7102 46.7184 13.0302 46.8184 13.4402C46.8284 13.5002 46.8184 13.5102 46.7484 13.5402L46.5984 13.6102C46.5184 13.6502 46.4984 13.6402 46.4884 13.5802C46.3984 13.1702 46.2884 12.8102 46.1584 12.5402C46.1284 12.4802 46.1384 12.4702 46.2184 12.4402ZM59.4784 12.6902V14.5602C60.1084 14.7302 60.9184 14.8202 61.9584 14.8202C62.1884 14.8202 62.4384 14.8102 62.6184 14.8002C62.5584 14.9102 62.5084 15.0302 62.4684 15.2002C62.4184 15.4202 62.4184 15.4202 62.2384 15.4202C61.8884 15.4202 61.5584 15.4102 61.2584 15.4002C58.8084 15.2902 57.7784 14.6602 57.2284 13.4402C56.9684 14.2302 56.6184 14.8802 56.0584 15.5702C55.9984 15.6502 55.9684 15.6802 55.9384 15.6802C55.9084 15.6802 55.8684 15.6502 55.8084 15.5802C55.7084 15.4702 55.5684 15.3602 55.4584 15.3102C56.3484 14.3602 56.7784 13.3002 56.9884 11.9702C57.0284 11.7302 57.0384 11.5402 57.0284 11.3602C57.2384 11.3902 57.4084 11.4202 57.5684 11.4602C57.6784 11.4902 57.7384 11.5202 57.7384 11.5802C57.7384 11.6302 57.7084 11.6802 57.6684 11.7302C57.6284 11.7802 57.5984 11.9402 57.5684 12.1002C57.5184 12.3602 57.4584 12.6002 57.3984 12.8302C57.6884 13.5102 58.1184 14.0302 58.8884 14.3602V10.6802H57.6784C56.6684 10.6802 56.3384 10.7002 56.2884 10.7002C56.2184 10.7002 56.2084 10.6902 56.2084 10.6202V10.2002C56.2084 10.1302 56.2184 10.1202 56.2884 10.1202C56.3384 10.1202 56.6684 10.1402 57.6784 10.1402H58.8784V8.68024H58.1084C57.1584 8.68024 56.8484 8.70024 56.7984 8.70024C56.7284 8.70024 56.7184 8.69024 56.7184 8.63024V8.20024C56.7184 8.13024 56.7284 8.12024 56.7984 8.12024C56.8484 8.12024 57.1584 8.14024 58.1084 8.14024H58.8784V7.64024C58.8784 7.16024 58.8784 6.94024 58.8084 6.69024C59.0684 6.70024 59.2784 6.72024 59.4684 6.74024C59.5384 6.75024 59.5884 6.78024 59.5884 6.83024C59.5884 6.88024 59.5684 6.92024 59.5384 6.98024C59.4984 7.06024 59.4784 7.19024 59.4784 7.52024V8.14024H60.3884C61.3384 8.14024 61.6384 8.12024 61.6984 8.12024C61.7684 8.12024 61.7784 8.13024 61.7784 8.20024V8.63024C61.7784 8.69024 61.7684 8.70024 61.6984 8.70024C61.6384 8.70024 61.3384 8.68024 60.3884 8.68024H59.4784V10.1402H60.9984C62.0084 10.1402 62.3484 10.1202 62.3984 10.1202C62.4684 10.1202 62.4784 10.1302 62.4784 10.2002V10.6202C62.4784 10.6902 62.4684 10.7002 62.3984 10.7002C62.3484 10.7002 62.0084 10.6802 60.9984 10.6802H59.4784V12.1502H60.8384C61.4784 12.1502 61.6584 12.1302 61.7084 12.1302C61.7784 12.1302 61.7884 12.1402 61.7884 12.2102V12.6202C61.7884 12.7002 61.7784 12.7102 61.7084 12.7102C61.6584 12.7102 61.4784 12.6902 60.8384 12.6902H59.4784ZM54.7184 14.3302V12.5302C54.7184 12.1902 54.7384 11.7502 54.7484 11.3802C54.4684 11.7002 54.1684 12.0002 53.8584 12.2902C53.7984 12.3502 53.7584 12.3802 53.7184 12.3802C53.6784 12.3802 53.6484 12.3402 53.6084 12.2602C53.5184 12.1002 53.4484 12.0102 53.3584 11.9302C54.2884 11.1402 54.9784 10.3102 55.4184 9.46024C55.4984 9.31024 55.5684 9.11024 55.6084 8.96024C55.7984 9.05024 55.9684 9.14024 56.1184 9.24024C56.1884 9.29024 56.2184 9.33024 56.2184 9.37024C56.2184 9.41024 56.1884 9.45024 56.1484 9.48024C56.0884 9.52024 56.0084 9.60024 55.9284 9.73024C55.7384 10.0602 55.5284 10.3702 55.3084 10.6802V14.3302C55.3084 15.2002 55.3284 15.5702 55.3284 15.6202C55.3284 15.6902 55.3184 15.7002 55.2484 15.7002H54.7784C54.7084 15.7002 54.6984 15.6902 54.6984 15.6202C54.6984 15.5602 54.7184 15.2002 54.7184 14.3302ZM56.2184 7.14024C56.2184 7.19024 56.1784 7.23024 56.0984 7.27024C56.0384 7.30024 55.9484 7.40024 55.8484 7.53024C55.3584 8.17024 54.7384 8.78024 54.0284 9.32024C53.9584 9.37024 53.9184 9.40024 53.8784 9.40024C53.8384 9.40024 53.8184 9.36024 53.7484 9.27024C53.6584 9.14024 53.5584 9.03024 53.4684 8.96024C54.2384 8.45024 54.8784 7.82024 55.3584 7.15024C55.4884 6.96024 55.5484 6.84024 55.5884 6.71024C55.7984 6.81024 55.9684 6.91024 56.1284 7.02024C56.1884 7.06024 56.2184 7.09024 56.2184 7.14024ZM72.2484 10.0302V10.4502C72.2484 10.5202 72.2384 10.5302 72.1684 10.5302C72.1184 10.5302 71.7884 10.5102 70.8284 10.5102H68.4984V11.2502C68.4984 11.7002 68.5184 12.1302 68.5184 12.4802C68.5184 12.8302 68.4584 13.0402 68.2584 13.2002C68.0484 13.3702 67.8584 13.4302 66.9684 13.4202C66.7784 13.4202 66.7684 13.4102 66.7184 13.2002C66.6784 13.0202 66.6084 12.8702 66.5184 12.7402C66.8584 12.7802 67.0684 12.7902 67.3184 12.7902C67.7484 12.7902 67.8984 12.6502 67.8984 12.3402V10.5102H65.3284C64.3584 10.5102 64.0384 10.5302 63.9884 10.5302C63.9184 10.5302 63.9084 10.5202 63.9084 10.4502V10.0302C63.9084 9.96024 63.9184 9.95024 63.9884 9.95024C64.0384 9.95024 64.3584 9.97024 65.3284 9.97024H65.5784V8.86024C65.5784 8.18024 65.5584 7.93024 65.5084 7.61024C65.7584 7.62024 65.9784 7.64024 66.1684 7.66024C66.2384 7.67024 66.2784 7.70024 66.2784 7.75024C66.2784 7.80024 66.2584 7.85024 66.2384 7.92024C66.1984 8.04024 66.1784 8.27024 66.1784 8.83024V9.97024H67.8984V8.00024C67.8984 7.33024 67.8884 7.07024 67.8284 6.75024C68.0784 6.76024 68.3084 6.78024 68.4984 6.81024C68.5584 6.82024 68.6084 6.84024 68.6084 6.89024C68.6084 6.94024 68.5884 6.99024 68.5684 7.06024C68.5284 7.19024 68.4984 7.39024 68.4984 7.95024V8.11024H69.9584C70.8984 8.11024 71.2184 8.09024 71.2784 8.09024C71.3484 8.09024 71.3584 8.10024 71.3584 8.17024V8.60024C71.3584 8.66024 71.3484 8.67024 71.2784 8.67024C71.2184 8.67024 70.8984 8.65024 69.9584 8.65024H68.4984V9.97024H70.8284C71.7884 9.97024 72.1184 9.95024 72.1684 9.95024C72.2384 9.95024 72.2484 9.96024 72.2484 10.0302ZM70.5884 12.8602C70.5884 12.9102 70.5384 12.9502 70.4784 12.9702C70.4084 13.0002 70.3384 13.0502 70.2484 13.1502C69.2684 14.2302 67.6084 15.3102 64.7184 15.5902C64.5284 15.6102 64.5284 15.6002 64.4484 15.4102C64.3884 15.2602 64.2984 15.1402 64.1984 15.0302C67.0584 14.8502 68.9184 13.8202 69.7384 12.7902C69.8484 12.6502 69.9284 12.5202 69.9984 12.3802C70.1984 12.5002 70.3784 12.6202 70.4984 12.7202C70.5584 12.7702 70.5884 12.8102 70.5884 12.8602ZM66.4484 11.4202C66.4484 11.4702 66.3984 11.5102 66.3384 11.5502C66.2784 11.5902 66.1784 11.7202 66.1284 11.7902C65.7484 12.3402 65.1984 12.8502 64.5184 13.3302C64.4484 13.3802 64.3984 13.4102 64.3684 13.4102C64.3184 13.4102 64.2784 13.3602 64.2084 13.2802C64.1184 13.1702 63.9984 13.0902 63.8784 13.0202C64.6084 12.6102 65.1484 12.1002 65.4484 11.7202C65.6684 11.4502 65.7584 11.2402 65.8184 11.0702C66.0284 11.1502 66.1984 11.2202 66.3684 11.3102C66.4284 11.3402 66.4484 11.3702 66.4484 11.4202ZM70.0784 11.2902L70.3084 11.1402C70.3984 11.0802 70.4084 11.0702 70.4584 11.1302C71.0284 11.8002 71.7684 12.3502 72.5484 12.7202C72.4284 12.8202 72.3184 12.9202 72.2384 13.0502C72.1784 13.1402 72.1484 13.1802 72.1084 13.1802C72.0684 13.1802 72.0284 13.1602 71.9584 13.1202C71.2784 12.7202 70.6584 12.2102 69.9984 11.4302C69.9584 11.3802 69.9684 11.3602 70.0784 11.2902ZM76.3784 7.50024V14.1502H77.7384V14.8202H74.1284V14.1502H75.5784V8.37024C75.1984 8.63024 74.6984 8.88024 74.1384 9.09024L73.9984 8.36024C74.6084 8.16024 75.1884 7.85024 75.6984 7.50024H76.3784ZM82.2352 10.6902H84.7652C85.7452 10.6902 86.0652 10.6702 86.1252 10.6702C86.1952 10.6702 86.2152 10.6902 86.2152 10.7602C86.1952 11.0702 86.1952 11.4002 86.1752 11.8202C86.1552 12.6202 86.0952 13.3402 85.9352 14.3402C85.8152 15.0102 85.5052 15.4802 84.6552 15.4802C84.3352 15.4802 84.1352 15.4802 83.8552 15.4502C83.6552 15.4402 83.6552 15.4402 83.6152 15.2202C83.5752 15.0302 83.5052 14.8702 83.4152 14.7502C83.9052 14.8302 84.1852 14.8502 84.5552 14.8502C85.0252 14.8502 85.2352 14.6302 85.3252 14.1002C85.4452 13.4102 85.5252 12.5302 85.5452 11.2502H83.3152C83.1752 13.3302 82.1352 14.7502 80.3052 15.6002C80.2352 15.6302 80.1952 15.6502 80.1652 15.6502C80.1152 15.6502 80.0852 15.6102 80.0152 15.5002C79.9352 15.3702 79.8152 15.2502 79.6952 15.1702C81.5352 14.4502 82.5352 13.1502 82.6852 11.2502H82.2352C81.2652 11.2502 80.9452 11.2702 80.8952 11.2702C80.8252 11.2702 80.8152 11.2602 80.8152 11.1902V10.7502C80.8152 10.6802 80.8252 10.6702 80.8952 10.6702C80.9452 10.6702 81.2652 10.6902 82.2352 10.6902ZM82.9952 7.32024C82.9952 7.35024 82.9652 7.39024 82.9152 7.43024C82.8452 7.49024 82.7752 7.55024 82.7352 7.65024C81.9252 9.30024 80.9852 10.3702 79.5852 11.3802C79.5052 11.4402 79.4652 11.4702 79.4352 11.4702C79.3952 11.4702 79.3552 11.4302 79.2952 11.3402C79.1952 11.2002 79.0652 11.0802 78.9452 11.0102C80.4252 10.1102 81.5052 8.77024 82.0652 7.52024C82.1552 7.31024 82.1952 7.14024 82.2252 6.93024C82.4452 6.99024 82.7052 7.09024 82.8652 7.17024C82.9552 7.21024 82.9952 7.26024 82.9952 7.32024ZM84.3452 7.10024L84.6452 6.94024C84.7652 6.88024 84.7752 6.89024 84.8052 6.97024C85.5152 8.57024 86.7452 9.98024 88.2852 10.8802C88.1652 10.9702 88.0352 11.1202 87.9352 11.2802C87.8752 11.3702 87.8452 11.4202 87.8152 11.4202C87.7852 11.4202 87.7452 11.3902 87.6752 11.3402C86.1452 10.2402 85.0152 8.84024 84.2552 7.23024C84.2152 7.15024 84.2452 7.15024 84.3452 7.10024ZM101.925 7.50024V14.1502H103.285V14.8202H99.6752V14.1502H101.125V8.37024C100.745 8.63024 100.245 8.88024 99.6852 9.09024L99.5452 8.36024C100.155 8.16024 100.735 7.85024 101.245 7.50024H101.925ZM104.932 13.9602L105.732 13.5902C105.932 14.0602 106.242 14.2802 106.662 14.2802C107.632 14.2802 108.202 13.4802 108.262 11.2302C107.892 11.9102 107.342 12.2402 106.662 12.2402C105.582 12.2402 104.742 11.3402 104.742 9.94024C104.742 8.43024 105.602 7.45024 106.812 7.45024C108.162 7.45024 109.052 8.50024 109.052 10.8602C109.052 13.7502 108.172 14.9502 106.662 14.9502C105.822 14.9502 105.242 14.6302 104.932 13.9602ZM108.222 10.4802C108.202 8.96024 107.732 8.12024 106.842 8.12024C106.052 8.12024 105.582 8.81024 105.582 9.93024C105.582 10.9502 106.092 11.5602 106.802 11.5602C107.402 11.5602 107.862 11.2202 108.222 10.4802ZM111.669 9.71024V10.8002H110.579V9.71024H111.669ZM111.669 13.7302V14.8202H110.579V13.7302H111.669ZM115.331 7.45024C116.731 7.45024 117.511 8.52024 117.511 11.1602C117.511 13.8102 116.731 14.9502 115.311 14.9502C113.891 14.9502 113.121 13.8302 113.121 11.1802C113.121 8.54024 113.931 7.45024 115.331 7.45024ZM115.331 8.14024C114.441 8.14024 113.971 8.92024 113.971 11.1702C113.971 13.4102 114.411 14.2602 115.311 14.2602C116.221 14.2602 116.661 13.4102 116.661 11.1702C116.661 8.93024 116.231 8.14024 115.331 8.14024ZM120.878 7.45024C122.278 7.45024 123.058 8.52024 123.058 11.1602C123.058 13.8102 122.278 14.9502 120.858 14.9502C119.438 14.9502 118.668 13.8302 118.668 11.1802C118.668 8.54024 119.478 7.45024 120.878 7.45024ZM120.878 8.14024C119.988 8.14024 119.518 8.92024 119.518 11.1702C119.518 13.4102 119.958 14.2602 120.858 14.2602C121.768 14.2602 122.208 13.4102 122.208 11.1702C122.208 8.93024 121.778 8.14024 120.878 8.14024ZM127.165 11.6402V12.3102H124.385V11.6402H127.165ZM129.382 9.58024L128.562 9.39024C128.772 8.12024 129.612 7.45024 130.732 7.45024C131.922 7.45024 132.762 8.15024 132.762 9.34024C132.762 10.1402 132.462 10.7402 131.252 11.8002C130.172 12.7502 129.662 13.4002 129.332 14.1302H132.772V14.8202H128.502V14.2002C128.912 13.2302 129.552 12.3702 130.642 11.3602C131.672 10.4002 131.902 9.98024 131.902 9.34024C131.902 8.60024 131.422 8.14024 130.722 8.14024C129.992 8.14024 129.512 8.62024 129.382 9.58024ZM138.339 7.57024V8.19024C137.079 10.2202 136.439 12.1802 136.229 14.8202H135.309C135.549 12.2002 136.289 10.2702 137.509 8.27024H134.079V7.57024H138.339ZM140.966 9.71024V10.8002H139.876V9.71024H140.966ZM140.966 13.7302V14.8202H139.876V13.7302H140.966ZM144.628 7.45024C146.028 7.45024 146.808 8.52024 146.808 11.1602C146.808 13.8102 146.028 14.9502 144.608 14.9502C143.188 14.9502 142.418 13.8302 142.418 11.1802C142.418 8.54024 143.228 7.45024 144.628 7.45024ZM144.628 8.14024C143.738 8.14024 143.268 8.92024 143.268 11.1702C143.268 13.4102 143.708 14.2602 144.608 14.2602C145.518 14.2602 145.958 13.4102 145.958 11.1702C145.958 8.93024 145.528 8.14024 144.628 8.14024ZM150.175 7.45024C151.575 7.45024 152.355 8.52024 152.355 11.1602C152.355 13.8102 151.575 14.9502 150.155 14.9502C148.735 14.9502 147.965 13.8302 147.965 11.1802C147.965 8.54024 148.775 7.45024 150.175 7.45024ZM150.175 8.14024C149.285 8.14024 148.815 8.92024 148.815 11.1702C148.815 13.4102 149.255 14.2602 150.155 14.2602C151.065 14.2602 151.505 13.4102 151.505 11.1702C151.505 8.93024 151.075 8.14024 150.175 8.14024Z" fill="white"/>
</svg>
