<svg width="20" height="23" viewBox="0 0 20 23" fill="none" xmlns="http://www.w3.org/2000/svg">
<circle cx="10" cy="12" r="10" fill="#B78C52"/>
<path d="M8.492 9.482L6.742 9.118C6.98 7.2 8.282 6.164 10.032 6.164C11.95 6.164 13.224 7.2 13.224 9.048C13.224 10.238 12.706 11.134 11.068 12.66C9.598 13.976 8.898 14.76 8.464 15.628H13.266V17.028H6.644V15.782C7.274 14.466 8.17 13.29 9.696 11.82C11.096 10.476 11.404 9.916 11.404 9.034C11.404 8.096 10.858 7.55 10.004 7.55C9.122 7.55 8.576 8.208 8.492 9.482Z" fill="#121110"/>
</svg>
