<svg width="20" height="23" viewBox="0 0 20 23" fill="none" xmlns="http://www.w3.org/2000/svg">
<circle cx="10" cy="12" r="10" fill="#B78C52"/>
<path d="M8.408 8.992L6.686 8.474C7.092 6.962 8.296 6.164 9.92 6.164C11.866 6.164 13.126 7.298 13.126 8.852C13.126 10.112 12.37 11.036 11.082 11.26V11.358C12.524 11.666 13.336 12.632 13.336 14.046C13.336 15.936 11.964 17.224 9.92 17.224C8.156 17.224 6.994 16.51 6.518 14.858L8.24 14.354C8.478 15.432 8.982 15.866 9.906 15.866C10.914 15.866 11.544 15.194 11.544 14.06C11.544 12.842 10.97 12.128 9.472 12.128H8.66V10.7H9.402C10.802 10.7 11.362 10.098 11.362 9.02C11.362 8.04 10.788 7.522 9.892 7.522C9.15 7.522 8.548 7.984 8.408 8.992Z" fill="#121110"/>
</svg>
