<svg width="394" height="121" viewBox="0 0 394 121" fill="none" xmlns="http://www.w3.org/2000/svg">
<circle cx="60" cy="61.0002" r="60" fill="#121110" fill-opacity="0.7"/>
<path d="M31.152 80.2802L31.236 79.6202C31.296 79.1762 31.296 79.0682 31.296 78.5282V73.1402C31.272 72.2642 31.188 72.0602 30.384 71.8562V71.7242C30.564 71.5802 30.876 71.3522 31.296 71.3522C31.908 71.3522 33.06 71.8562 33.06 72.3842C33.06 72.5162 32.856 73.0562 32.82 73.1762C32.712 73.6322 32.688 74.7122 32.688 75.0482C34.092 75.2522 35.22 75.6602 35.7 75.9242C35.916 76.0442 36.648 76.4402 36.648 77.2562C36.648 77.8082 36.288 78.0722 35.976 78.0722C35.556 78.0722 35.46 77.9642 34.524 76.9802C34.188 76.6202 33.432 76.0442 32.688 75.6482C32.7 76.4282 32.856 79.8722 32.856 80.5682C32.856 80.9042 32.856 81.6722 32.148 81.6722C31.368 81.6722 31.152 80.5322 31.152 80.2802ZM34.296 72.6362L34.368 72.4922C35.76 72.6122 37.032 73.3442 37.032 74.1002C37.032 74.4122 36.828 74.6642 36.576 74.6642C36.36 74.6642 36.312 74.6162 35.928 74.1002C35.304 73.2722 34.548 72.7922 34.296 72.6362ZM35.268 71.6282L35.328 71.4722C36.6 71.4722 38.076 72.1802 38.076 72.9722C38.076 73.2722 37.872 73.4882 37.644 73.4882C37.44 73.4882 37.404 73.4402 36.996 72.9602C36.36 72.2162 35.544 71.7722 35.268 71.6282ZM41.292 72.5282L41.304 72.3962C41.484 72.2642 41.748 72.0842 42.12 72.0842C42.696 72.0842 43.692 72.6122 43.692 73.0562C43.692 73.1522 43.68 73.1882 43.584 73.5242C43.548 73.6562 43.548 73.8242 43.548 74.0762C43.548 74.4842 43.584 76.3082 43.584 76.6802C43.584 77.0762 43.584 77.9042 42.864 77.9042C42.18 77.9042 41.928 76.8722 41.928 76.5002C41.928 76.4042 41.952 76.3442 42.012 75.8522C42.036 75.6842 42.036 75.2762 42.036 75.0962C42.036 73.3322 42 73.2242 41.94 73.0202C41.844 72.7082 41.568 72.6122 41.292 72.5282ZM45.516 72.0482V71.9162C45.72 71.7482 46.032 71.4962 46.56 71.4962C47.16 71.4962 48.216 71.9762 48.216 72.4802C48.216 72.6362 48.036 73.3082 48.024 73.4402C47.988 73.8482 47.988 75.6002 47.976 75.9602C47.868 78.9362 47.1 80.8322 43.284 81.6962L43.224 81.5642C46.344 79.7402 46.368 78.1562 46.368 73.3082C46.368 72.3482 46.368 72.2642 45.516 72.0482ZM52.944 72.3122L53.004 72.1922C54.108 72.3122 56.76 72.8522 56.76 74.4122C56.76 74.9162 56.484 75.4322 56.004 75.4322C55.572 75.4322 55.356 75.0722 55.128 74.7122C54.24 73.2842 53.34 72.6122 52.944 72.3122ZM53.004 78.6962L53.136 78.6602C53.292 78.8162 53.628 79.1642 54.132 79.1642C54.924 79.1642 59.016 77.0162 61.884 73.4762L62.004 73.5602C60.636 77.1962 58.356 78.6842 55.5 80.5682C55.404 80.6282 55.02 80.9402 54.936 81.0002C54.816 81.0842 54.696 81.1442 54.54 81.1442C53.964 81.1442 52.944 80.1602 52.944 79.2362C52.944 79.0082 52.968 78.8402 53.004 78.6962ZM64.968 81.5522L64.92 81.4322C68.064 79.6442 69.732 77.2682 70.548 75.5042C70.884 74.7842 71.076 74.2442 71.076 74.1842C71.076 74.1362 71.028 74.1122 70.98 74.1122C70.8 74.1122 69.336 74.4242 69.024 74.4242C68.772 74.4242 68.556 74.3282 68.4 74.2322C66.888 76.1402 65.748 76.6442 64.548 77.0162L64.476 76.9082C66.492 75.0242 67.704 72.7562 67.704 72.2882C67.704 71.9162 67.356 71.7962 67.176 71.7242L67.2 71.5922C67.416 71.4602 67.632 71.3282 67.956 71.3282C68.64 71.3282 69.612 72.0362 69.612 72.4922C69.612 72.6362 69.576 72.6842 69.228 73.0922C69.168 73.1762 69.096 73.2482 69.036 73.3442C69.516 73.3442 70.848 73.1642 71.436 72.9722C71.568 72.9242 72.144 72.6602 72.264 72.6602C72.624 72.6602 73.464 73.4282 73.464 73.7762C73.464 73.9922 73.416 74.0282 73.068 74.2802C72.936 74.3642 72.888 74.4602 72.456 75.3242C70.764 78.6602 68.928 80.7482 64.968 81.5522ZM79.608 71.5322V79.8002C79.608 80.4002 79.716 80.6522 80.412 80.6522H80.952V81.0002H76.488V80.6522H77.04C77.748 80.6522 77.844 80.3762 77.844 79.8002V72.2642L76.632 72.4802L76.584 72.0962L79.608 71.5322ZM82.8131 79.6922L82.6931 79.6082C83.6171 77.4482 84.0611 76.3082 84.4571 74.0642H83.9171C83.6171 74.0642 83.3531 74.0762 82.9811 74.1122L82.8011 73.6802C83.1371 73.7042 83.5211 73.7282 84.0011 73.7282H84.5291V72.2162C84.5291 71.4602 84.5171 71.2682 84.4811 70.7642L86.1491 70.9682C86.2331 70.9682 86.4491 70.9922 86.4491 71.1602C86.4491 71.3162 86.2811 71.3762 86.0411 71.4602V73.7282H86.3051L86.8571 72.9482C86.9651 72.7922 87.0251 72.7802 87.0611 72.7802C87.1451 72.7802 87.2531 72.8762 87.3011 72.9242L88.1651 73.7522C88.2011 73.7882 88.2611 73.8482 88.2611 73.9202C88.2611 74.0642 88.1291 74.0642 88.0451 74.0642H86.0411V74.8082C86.4971 74.9042 87.7691 75.3242 87.7691 76.3922C87.7691 76.9202 87.4211 77.3162 87.0251 77.3162C86.7371 77.3162 86.6291 77.1962 86.5091 76.5362C86.4491 76.2122 86.2211 75.5642 86.0411 75.2762V79.0202C86.0411 79.4042 86.0651 81.0722 86.0651 81.4202C86.0651 81.6842 86.0651 82.0802 84.9491 82.0802C84.5051 82.0802 84.5051 81.9602 84.5051 81.5762C84.5051 81.5522 84.5291 79.8842 84.5291 79.5602V77.6522C84.3371 77.9402 83.6531 79.0082 82.8131 79.6922ZM90.6371 74.5202L90.9731 74.5562C91.1291 74.5682 91.2731 74.5922 91.2731 74.7242C91.2731 74.8682 91.1771 74.9162 90.9011 75.0242V79.1522C90.9011 79.4522 90.9371 80.7722 90.9371 81.0482C90.9371 81.6362 90.9371 81.7082 90.8411 81.8042C90.6371 82.0082 90.0251 82.0682 89.8091 82.0682C89.3171 82.0682 89.2931 81.9002 89.2931 81.6122C89.2931 81.5042 89.3171 79.6442 89.3171 79.3922V76.5482C89.0651 76.8602 88.0931 78.0722 86.5691 78.9482L86.4731 78.8522C88.6211 75.9242 89.4371 73.4882 89.7251 72.2882H87.9011C87.7331 72.2882 87.4691 72.2882 86.9651 72.3362L86.7851 71.9042C87.1571 71.9282 87.5291 71.9522 87.9971 71.9522H91.5971L92.2931 71.0162C92.3891 70.8962 92.4131 70.8482 92.4851 70.8482C92.5691 70.8482 92.6411 70.8962 92.7611 70.9922L93.9731 71.9402C94.0211 71.9762 94.1051 72.0362 94.1051 72.1322C94.1051 72.2882 93.9371 72.2882 93.8531 72.2882H91.5731C91.4411 72.7202 91.2131 73.4282 90.6371 74.5202ZM91.0091 75.0602L91.1051 74.9522C91.9571 75.2282 94.0691 76.2722 94.0691 77.9402C94.0691 78.6242 93.5771 79.0442 93.1211 79.0442C92.6531 79.0442 92.5451 78.7442 92.2931 77.9522C92.0291 77.1362 91.6451 76.1642 91.0091 75.0602Z" fill="#B78C52"/>
<path d="M47.608 89.5322V97.8002C47.608 98.4002 47.716 98.6522 48.412 98.6522H48.952V99.0002H44.488V98.6522H45.04C45.748 98.6522 45.844 98.3762 45.844 97.8002V90.2642L44.632 90.4802L44.584 90.0962L47.608 89.5322ZM50.9091 94.3682C50.9091 90.7922 52.6851 89.5322 54.1731 89.5322C55.7691 89.5322 57.4491 90.9242 57.4491 94.3682C57.4611 97.8602 55.7331 99.1922 54.1731 99.1922C52.6131 99.1922 50.9091 97.8362 50.9091 94.3682ZM52.7571 94.3562C52.7571 98.5322 53.4771 98.8442 54.1611 98.8442C54.8331 98.8442 55.5891 98.6402 55.5891 94.3562C55.5891 90.1802 54.8691 89.8802 54.1851 89.8802C53.5251 89.8802 52.7571 90.0722 52.7571 94.3562ZM58.3623 94.3682C58.3623 90.7922 60.1383 89.5322 61.6263 89.5322C63.2223 89.5322 64.9023 90.9242 64.9023 94.3682C64.9143 97.8602 63.1863 99.1922 61.6263 99.1922C60.0663 99.1922 58.3623 97.8362 58.3623 94.3682ZM60.2103 94.3562C60.2103 98.5322 60.9303 98.8442 61.6143 98.8442C62.2863 98.8442 63.0423 98.6402 63.0423 94.3562C63.0423 90.1802 62.3223 89.8802 61.6383 89.8802C60.9783 89.8802 60.2103 90.0722 60.2103 94.3562ZM68.3114 89.6762H74.3954L74.8994 89.0042C74.9834 88.8962 75.0314 88.8362 75.1274 88.8362C75.1994 88.8362 75.3434 88.9202 75.4034 88.9562L76.5314 89.7482C76.6994 89.8682 76.7474 89.9282 76.7474 90.0242C76.7474 90.1202 76.7354 90.2402 76.1954 90.5282V97.1162C76.1954 98.7002 76.1954 98.8682 76.1114 99.1442C75.9434 99.6362 75.6794 99.9962 73.9034 100.068C73.8794 99.3002 73.7834 98.6522 72.0674 98.1602V98.0042L74.0474 98.0642C74.4554 98.0762 74.4554 97.9682 74.4554 97.6682V94.8842H68.2634V98.3162C68.2634 98.4842 68.2754 99.2762 68.2754 99.4322C68.2754 99.7082 68.2754 100.08 66.9794 100.08C66.5594 100.08 66.4874 99.9362 66.4874 99.6002C66.4874 99.5522 66.5234 98.4362 66.5234 98.2082V90.5042C66.5234 89.5442 66.4994 89.2442 66.4754 88.9322L68.3114 89.6762ZM70.4954 94.5482V90.0122H68.2634V94.5482H70.4954ZM72.2114 90.0122V94.5482H74.4554V90.0122H72.2114Z" fill="white"/>
<path d="M50.4759 63.9997C50.4759 63.9997 52.08 55.4966 51.9732 49.9358C51.8664 44.3749 48.6103 45.4207 48.0034 39.634C47.3965 33.8472 51.2763 20.3801 51.2763 20.3801L60.2609 21.3227C60.2609 21.3227 61.455 36.3626 59.9252 40.8847C58.3955 45.4067 55.6676 44.7737 53.701 50.117C51.7344 55.4604 52.2037 64.1809 52.2037 64.1809L59.2413 67.0004L43 65.2965L50.4759 63.9997Z" fill="#B78C52"/>
<path d="M73.6004 61.3016C73.6004 61.3016 72.4478 52.7267 70.596 47.4774C68.7442 42.228 65.9803 44.2314 63.5824 38.9226C61.1844 33.6138 60.631 19.6176 60.631 19.6176L69.4625 17.7264C69.4625 17.7264 75.3308 31.643 75.301 36.4131C75.2712 41.1832 72.4806 41.4279 72.2943 47.1137C72.1081 52.7994 75.2987 60.9379 75.2987 60.9379L82.8715 61.4334L66.907 64.8522L73.6004 61.3016Z" fill="#B78C52"/>
<circle cx="57.4444" cy="17.8892" r="0.962963" fill="#B78C52"/>
<circle cx="62.2593" cy="15.9632" r="0.962963" fill="#B78C52"/>
<circle cx="76" cy="118" r="2" fill="#B78C52"/>
<circle cx="87" cy="114" r="2" fill="#B78C52"/>
<circle cx="96" cy="108" r="2" fill="#B78C52"/>
<path d="M9 29.0002C13.8333 20.8336 28.2 4.30024 51 1.50024" stroke="#FFDBAB" stroke-width="2" stroke-linecap="round"/>
<circle cx="197" cy="61.0002" r="60" fill="#121110" fill-opacity="0.7"/>
<path fill-rule="evenodd" clip-rule="evenodd" d="M179.151 42.8528C179.896 42.4201 181.323 40.3215 181.067 35.3886C180.748 29.2225 181.387 16.8902 190.328 17.2148C193.521 12.6713 200.546 15.9166 202.782 19.811C205.017 23.7054 205.975 25.6526 206.613 34.7395C206.648 35.2355 206.673 35.7228 206.697 36.1993C206.712 36.5099 206.727 36.8159 206.745 37.1167C199.887 39.6582 195 46.2585 195 54.0002C195 56.8739 195.673 59.5903 196.871 62.0002H175V59.0795C175.639 57.8895 177.746 55.1851 181.067 53.8869C181.636 53.6645 182.187 53.4543 182.719 53.2513C186.07 51.973 188.674 50.9793 190.328 49.0189V46.4227C187.56 46.4227 181.45 45.7087 179.151 42.8528Z" fill="#B78C52"/>
<path fill-rule="evenodd" clip-rule="evenodd" d="M213.013 67.0002C220.229 67.0002 226.078 61.1509 226.078 53.9353C226.078 46.7197 220.229 40.8704 213.013 40.8704C205.797 40.8704 199.948 46.7197 199.948 53.9353C199.948 61.1509 205.797 67.0002 213.013 67.0002ZM211.38 56.1128L218.457 49.5803C219.001 49.2174 220.308 48.7093 221.179 49.5803C222.05 50.4513 221.542 51.7578 221.179 52.3022L212.469 61.0121C212.469 61.0121 211.924 61.5565 211.38 61.5565C210.836 61.5565 210.291 61.0121 210.291 61.0121L205.392 56.1128C205.21 55.7499 205.065 54.8063 205.936 53.9353C206.807 53.0643 207.751 53.2095 208.114 53.3909L211.38 56.1128Z" fill="#B78C52"/>
<path d="M183.016 73.8122L184.552 74.2682C184.696 74.3162 184.78 74.3402 184.78 74.4482C184.78 74.5802 184.648 74.6162 184.336 74.6282C183.868 75.0002 183.544 75.2402 183.076 75.5402H184.528L185.116 74.7242C185.2 74.6162 185.236 74.5562 185.32 74.5562C185.392 74.5562 185.44 74.5922 185.572 74.7122L186.508 75.5282C186.556 75.5762 186.628 75.6362 186.628 75.7442C186.628 75.8762 186.484 75.8762 186.376 75.8762H182.068C183.364 76.5482 184.348 76.9442 186.76 77.0642V77.2082C186.136 77.7482 186.016 78.5642 185.98 78.8162C185.788 78.7442 185.716 78.7202 185.5 78.6482C185.44 78.6842 185.392 78.7202 185.116 78.8402V80.0522C185.116 80.2802 185.14 81.2522 185.14 81.4562C185.14 81.6962 185.14 82.1042 183.892 82.1042C183.412 82.1042 183.412 81.9122 183.412 81.4202H178.672C178.672 81.7562 178.684 82.1042 177.412 82.1042C176.992 82.1042 176.956 81.8882 176.956 81.7082C176.956 81.5282 176.992 80.4362 176.992 80.2922V78.2642C176.584 78.3962 176.236 78.5162 175.384 78.7082L175.324 78.5762C176.26 78.0722 177.748 77.1482 178.924 75.8762H176.452C176.152 75.8762 175.888 75.8882 175.516 75.9242L175.336 75.4922C175.684 75.5162 176.056 75.5402 176.548 75.5402H178.384C178.168 75.4442 178.096 75.2642 178 75.0002C177.772 74.4002 177.58 74.1122 177.496 73.9922L177.556 73.8842C177.508 73.8842 177.256 73.8722 177.208 73.8602C177.1 74.0402 176.848 74.4602 176.236 74.4602C176.008 74.4602 175.432 74.3642 175.432 73.8122C175.432 73.5002 175.504 73.4282 176.08 72.8162C176.644 72.2162 176.896 71.6882 177.052 71.3522H177.196C177.388 71.8082 177.4 71.8922 177.46 72.1802H180.148C180.148 71.4362 180.136 71.2082 180.088 70.6922L182.02 70.8842C182.152 70.8962 182.344 70.9202 182.344 71.0762C182.344 71.1962 182.248 71.2802 181.876 71.3762V72.1802H184.312L184.912 71.4602C184.96 71.4002 185.02 71.3402 185.128 71.3402C185.212 71.3402 185.308 71.4122 185.344 71.4482L186.388 72.4202C186.592 72.6122 186.604 72.7202 186.604 72.7922C186.604 72.9962 186.532 72.9962 185.86 73.0682C185.452 73.2722 185.044 73.4522 184.588 73.6202C184.624 73.7522 184.552 73.8122 184.432 73.8122C184.312 73.8122 184.168 73.7762 184.06 73.7402C183.472 73.7882 183.412 73.7882 183.016 73.8122ZM181.876 75.5402H182.392C182.548 75.1682 182.86 74.3042 182.92 73.8242C182.368 73.8482 182.296 73.8602 181.876 73.8722V75.5402ZM180.208 75.5402V73.9202C179.296 73.9442 178.768 73.9322 177.676 73.8842C178.072 73.9442 179.548 74.1722 179.548 74.9522C179.548 75.1562 179.44 75.3962 178.948 75.5402H180.208ZM178.192 77.8082L178.744 78.0242H183.4L183.64 77.7482C182.632 77.1362 182.152 76.5962 181.876 76.2842C181.876 76.4282 181.9 77.0882 181.9 77.2202C181.9 77.4842 181.9 77.8562 180.712 77.8562C180.244 77.8562 180.184 77.7482 180.184 77.4722C180.184 77.4362 180.208 76.7642 180.208 76.6322C179.764 76.9682 179.32 77.3042 178.192 77.8082ZM183.412 78.3602H181.828V79.5362H183.412V78.3602ZM180.208 78.3602H178.672V79.5362H180.208V78.3602ZM184.444 72.5162H177.484C177.508 73.1882 177.352 73.5602 177.292 73.6802C178.852 73.4642 181.84 73.0562 183.16 72.5162L184.288 73.3442C184.396 72.7922 184.408 72.7322 184.444 72.5162ZM180.208 79.8722H178.672V81.0842H180.208V79.8722ZM181.828 81.0842H183.412V79.8722H181.828V81.0842ZM198.82 74.7842V74.9282C198.208 75.2762 197.86 76.0082 197.776 76.6562C196.612 76.1762 194.92 74.9882 193.792 72.9722V73.6442C193.792 73.8842 193.828 75.2642 193.828 75.5282C193.828 75.7442 193.828 76.0802 192.58 76.0802C192.124 76.0802 192.1 75.9362 192.1 75.6842C192.1 75.4082 192.112 74.1842 192.124 73.9322C191.38 74.6882 190.612 75.2762 189.712 75.7922L191.26 76.3802H194.836L195.22 75.7922C195.316 75.6482 195.376 75.6122 195.436 75.6122C195.52 75.6122 195.616 75.6722 195.7 75.7442L196.816 76.5362C196.96 76.6442 197.008 76.7282 197.008 76.8242C197.008 77.0162 196.684 77.2082 196.54 77.2802V81.1562H196.804L197.368 80.0402C197.428 79.9082 197.464 79.8602 197.56 79.8602C197.62 79.8602 197.656 79.8722 197.752 80.0042L198.604 81.1562C198.664 81.2402 198.688 81.2762 198.688 81.3482C198.688 81.4922 198.568 81.4922 198.472 81.4922H188.488C188.26 81.4922 188.032 81.4922 187.552 81.5402L187.372 81.1082C187.708 81.1322 188.092 81.1562 188.584 81.1562H189.4V77.3402C189.4 76.8482 189.388 76.1882 189.376 75.9962C188.668 76.3562 188.14 76.5962 187.312 76.8722L187.24 76.7522C189.568 74.8802 190.252 74.0402 191.02 72.7442H188.644C188.392 72.7442 188.176 72.7442 187.708 72.7922L187.528 72.3602C187.9 72.3842 188.26 72.4082 188.728 72.4082H192.124V72.1922C192.124 71.6042 192.124 71.2682 192.064 70.7402L193.948 70.9442C194.104 70.9562 194.248 70.9922 194.248 71.1242C194.248 71.2682 194.116 71.3162 193.792 71.4122V72.4082H195.94L196.636 71.3522C196.66 71.3042 196.744 71.1842 196.852 71.1842C196.924 71.1842 196.984 71.2322 197.104 71.3282L198.34 72.3962C198.376 72.4202 198.46 72.4922 198.46 72.6002C198.46 72.7442 198.292 72.7442 198.208 72.7442H193.96C194.716 73.4882 196.444 74.4842 198.82 74.7842ZM191.092 81.1562H194.86V79.8602H191.092V81.1562ZM194.86 76.7162H191.092V77.9522H194.86V76.7162ZM194.86 78.2762H191.092V79.5122H194.86V78.2762ZM205.696 74.7122L205.804 74.5802C206.068 74.6042 206.98 74.6882 207.184 75.3842C207.64 75.4562 208.348 75.5882 208.96 76.1042C209.512 76.5722 209.872 77.2682 209.872 78.1082C209.872 78.8522 209.596 80.2682 207.7 81.0842C206.584 81.5642 205.192 81.6362 204.568 81.6722L204.544 81.5282C205.768 81.2282 208.168 80.2322 208.168 77.8322C208.168 77.1122 207.904 76.3802 207.136 75.9722C206.932 76.5722 206.056 77.8802 204.748 79.2242C204.88 79.6922 204.904 79.7402 204.904 79.8962C204.904 80.2562 204.604 80.5442 204.232 80.5442C204.16 80.5442 203.872 80.5442 203.644 80.2442C203.14 80.6282 202.444 81.1562 201.604 81.1562C200.572 81.1562 200.128 80.1722 200.128 79.4162C200.128 77.7842 201.544 76.6082 203.104 75.9722C203.128 75.4202 203.188 74.8082 203.212 74.6042C202.84 74.6402 202.504 74.6762 202.18 74.6762C200.872 74.6762 200.68 73.6802 200.62 73.3322L200.728 73.2482C200.944 73.3802 201.124 73.4762 201.712 73.4762C201.808 73.4762 202.528 73.4642 203.38 73.3682C203.536 72.4202 203.56 72.3122 203.56 72.0962C203.56 71.6282 203.26 71.4842 202.912 71.3762L202.924 71.2322C203.2 71.1002 203.464 70.9802 203.752 70.9802C204.508 70.9802 205.336 71.5682 205.336 72.0362C205.336 72.2162 205.288 72.3122 205.108 72.6242C205.012 72.7802 204.916 72.9842 204.856 73.1642C205.408 73.0442 205.972 72.9242 206.512 72.7322C207.112 72.5162 207.184 72.4922 207.364 72.4922C207.868 72.4922 208.408 72.8882 208.408 73.3202C208.408 73.7162 208.024 73.8002 207.22 73.9802C206.2 74.2082 205.228 74.3282 204.52 74.4242C204.436 74.9882 204.412 75.1922 204.376 75.5522C204.616 75.5042 205.228 75.3602 205.972 75.3242C206.02 75.0122 205.936 74.8682 205.696 74.7122ZM205.84 75.7322C205.24 75.7682 204.916 75.8282 204.352 75.9842C204.316 76.9562 204.388 77.5082 204.424 77.8442C205.432 76.6562 205.768 75.8762 205.84 75.7322ZM203.08 76.5602C201.928 77.2802 201.364 78.3842 201.364 79.1522C201.364 79.5962 201.544 79.8842 201.82 79.8842C202.288 79.8842 203.164 79.1162 203.248 79.0442C203.092 78.2042 203.08 77.4242 203.08 76.5602ZM213.532 71.2802L213.568 71.1602C213.712 71.1242 213.904 71.0882 214.084 71.0882C214.912 71.0882 215.716 71.7962 215.716 72.3482C215.716 72.5042 215.68 72.6002 215.332 73.4042C214.972 74.2202 214.732 75.3002 214.732 76.0442C214.732 76.3562 214.792 76.5002 214.828 76.5002C214.864 76.5002 214.936 76.2482 215.02 75.9482C215.476 74.4242 216.496 71.8322 218.2 71.8322C219.112 71.8322 220.444 72.5282 220.444 75.7322C220.444 79.5602 218.632 81.2522 215.164 82.0082L215.104 81.8882C217.312 80.7602 218.776 79.0562 218.776 75.5642C218.776 74.2082 218.632 72.6602 217.696 72.6602C216.496 72.6602 215.632 74.8682 215.632 76.7882C215.632 76.9802 215.68 77.8322 215.68 78.0002C215.68 78.6482 215.272 78.9482 214.876 78.9482C214.048 78.9482 213.616 77.8322 213.616 76.2122C213.616 75.3002 213.712 74.6402 213.964 73.0562C214.012 72.7442 214.036 72.4682 214.036 72.2162C214.036 71.6042 213.748 71.4242 213.532 71.2802Z" fill="#B78C52"/>
<path d="M174.84 90.5162H177.06L177.672 89.7362C177.684 89.7242 177.78 89.6042 177.864 89.6042C177.948 89.6042 178.056 89.6882 178.104 89.7362L179.4 90.8402C179.544 90.9722 179.604 91.0202 179.604 91.1402C179.604 91.3682 179.508 91.3682 178.716 91.4162C178.344 91.6802 178.14 91.8002 177.42 92.1962L177.792 92.4962C177.816 92.5202 177.9 92.5922 177.9 92.7122C177.9 92.8682 177.744 92.8682 177.648 92.8682H171.468C171.144 92.8682 170.988 92.8802 170.532 92.9162L170.352 92.4842C170.724 92.5082 171.084 92.5322 171.564 92.5322H175.596L176.196 91.6202C176.28 91.4882 176.34 91.4522 176.4 91.4522C176.496 91.4522 176.544 91.4882 176.676 91.5962L176.952 91.8242C177.108 91.2602 177.144 91.1042 177.192 90.8642H170.424C170.46 90.9962 170.508 91.1882 170.508 91.5002C170.508 92.8442 169.632 93.0842 169.224 93.0842C168.672 93.0842 168.408 92.7362 168.408 92.4722C168.408 92.1962 168.552 92.0282 169.02 91.5002C169.596 90.8522 169.728 90.3362 169.86 89.8082H170.004C170.148 90.0722 170.22 90.2522 170.328 90.5162H173.124V90.2162C173.124 89.4362 173.088 89.0522 173.064 88.7762L174.996 88.9682C175.104 88.9802 175.296 89.0042 175.296 89.1482C175.296 89.3042 175.14 89.3522 174.84 89.4482V90.5162ZM176.196 94.9442V97.7042C176.196 98.1002 176.232 98.1842 176.676 98.1842H177.396C178.032 98.1842 178.068 98.1242 178.692 96.1202H178.836C178.872 96.3722 179.016 97.5842 179.064 97.7162C179.112 97.8722 179.16 97.9082 179.4 98.0882C179.532 98.1962 179.652 98.3282 179.652 98.6402C179.652 99.8882 178.308 99.8882 177.564 99.8882H176.124C174.516 99.8882 174.516 99.2762 174.516 98.2562V94.9442H171.828L173.088 95.1362C173.388 95.1842 173.52 95.2322 173.52 95.3522C173.52 95.4962 173.424 95.5202 173.124 95.6042C172.74 98.7362 170.94 99.6242 168.288 100.116L168.24 99.9842C170.916 98.5322 171.492 96.2762 171.432 94.9442H169.488C169.164 94.9442 169.008 94.9442 168.54 94.9922L168.372 94.5602C168.72 94.5842 169.092 94.6082 169.584 94.6082H177.18L177.84 93.6122C177.912 93.4922 177.972 93.4442 178.044 93.4442C178.128 93.4442 178.176 93.4922 178.308 93.5882L179.508 94.5482C179.604 94.6322 179.628 94.7042 179.628 94.7642C179.628 94.9322 179.496 94.9442 179.388 94.9442H176.196ZM185.016 96.1802V93.9722H183.36C183.096 93.9722 182.832 93.9842 182.424 94.0202L182.244 93.5882C182.58 93.6122 182.964 93.6362 183.456 93.6362H187.008L187.656 92.6882C187.716 92.6162 187.776 92.5202 187.884 92.5202C187.968 92.5202 188.004 92.5562 188.124 92.6642L189.3 93.6602C189.312 93.6602 189.384 93.7322 189.384 93.8282C189.384 93.9722 189.228 93.9722 189.132 93.9722H186.78V96.1802H187.8L188.484 95.1362C188.508 95.1002 188.604 94.9682 188.7 94.9682C188.784 94.9682 188.844 95.0162 188.952 95.1122L190.188 96.1682C190.26 96.2282 190.308 96.3002 190.308 96.3602C190.308 96.5282 190.14 96.5282 190.056 96.5282H186.78V99.1082H188.904L189.648 97.9922C189.708 97.8962 189.768 97.8122 189.876 97.8122C189.948 97.8122 189.948 97.8242 190.128 97.9682L191.46 99.1082C191.508 99.1562 191.556 99.2282 191.556 99.3002C191.556 99.4442 191.388 99.4442 191.292 99.4442H181.548C181.32 99.4442 181.092 99.4442 180.612 99.4922L180.432 99.0602C180.768 99.0842 181.152 99.1082 181.644 99.1082H185.016V96.5282H182.724C182.544 96.5282 182.28 96.5282 181.776 96.5642L181.596 96.1442C181.944 96.1682 182.328 96.1802 182.808 96.1802H185.016ZM191.796 92.4362V92.5802C191.472 92.7602 190.848 93.1202 190.572 94.3802C187.476 92.4482 186.576 90.6602 186.132 89.7602C185.208 91.0802 183.6 93.2402 180.264 94.4522L180.18 94.3442C181.788 93.0362 183.72 90.7562 184.416 88.7042L186.348 89.1362C186.48 89.1602 186.708 89.2322 186.708 89.3762C186.708 89.5442 186.54 89.5682 186.384 89.5922C187.548 90.6482 189 91.8122 191.796 92.4362ZM196.272 92.9762H198.228L198.828 92.1122C198.852 92.0642 198.936 91.9562 199.044 91.9562C199.128 91.9562 199.236 92.0282 199.296 92.0882L200.316 92.9882C200.364 93.0362 200.412 93.0842 200.412 93.1562C200.412 93.3122 200.244 93.3122 200.148 93.3122H196.188C195.864 93.3122 195.708 93.3122 195.24 93.3602L195.084 92.9642C194.328 93.4922 193.632 93.9362 192.324 94.3802L192.252 94.2602C193.536 93.0962 195.108 91.6202 196.32 89.3282C196.488 89.0042 196.548 88.8482 196.632 88.6562L198.456 89.0402C198.588 89.0642 198.924 89.1362 198.924 89.3162C198.924 89.5082 198.66 89.5562 198.54 89.5682C199.56 90.4922 201.108 91.7522 203.784 92.2082V92.3522C203.22 92.6882 202.836 93.4442 202.692 94.2602C200.844 93.2042 199.26 91.7282 198.192 89.8922C197.304 91.0562 196.32 92.0882 195.132 92.9282C195.696 92.9642 195.876 92.9762 196.272 92.9762ZM195.792 95.4482H193.872C193.644 95.4482 193.428 95.4482 192.936 95.4962L192.756 95.0642C193.104 95.0882 193.488 95.1122 193.968 95.1122H200.484L201.204 94.0442C201.264 93.9602 201.324 93.8762 201.42 93.8762C201.492 93.8762 201.504 93.8762 201.672 94.0202L202.944 95.1122C203.004 95.1602 203.052 95.2322 203.052 95.3042C203.052 95.4482 202.896 95.4482 202.788 95.4482H198.096C197.184 96.6962 196.116 97.7162 195.936 97.8722C198.66 97.8002 198.972 97.7882 200.172 97.7282C200.028 97.5002 199.944 97.3682 199.104 96.2402L199.188 96.1202C199.896 96.3482 202.572 97.4282 202.572 99.0122C202.572 99.6962 202.08 100.044 201.648 100.044C201.192 100.044 201.06 99.7322 200.94 99.4202C200.676 98.7602 200.652 98.6882 200.496 98.3282C198.048 98.9762 197.784 99.0482 196.788 99.2522C196.392 99.3362 194.628 99.6362 194.28 99.7082C194.244 99.8762 194.196 100.092 194.004 100.092C193.872 100.092 193.788 99.8642 193.776 99.8282L193.056 97.8482C194.244 97.8962 194.496 97.9082 194.976 97.8962C195.588 96.2402 195.66 96.0482 195.792 95.4482ZM208.176 97.6082L209.592 98.4362C209.736 98.5202 209.844 98.5802 209.844 98.7002C209.844 98.8682 209.628 98.8682 209.556 98.8682C209.508 98.8682 209.304 98.8442 209.268 98.8442C207.504 99.5882 206.616 99.8162 204.468 100.056L204.42 99.9242C206.676 98.8322 207.456 98.1842 208.056 97.6082H207.396C207.336 98.0282 206.664 98.1122 206.196 98.1122C205.728 98.1122 205.644 97.9802 205.644 97.6802C205.644 97.5242 205.68 96.3962 205.68 96.3002V93.6722C205.68 93.3002 205.68 92.5802 205.632 92.1602L206.028 92.3162C205.992 92.2562 205.98 92.2202 205.98 92.0882C205.98 91.9082 206.016 91.0322 206.016 90.9722V90.2042C206.016 89.5562 205.992 89.1122 205.98 88.9322L207.756 89.6162H212.232L212.772 89.0042C212.844 88.9322 212.916 88.8482 213.012 88.8482C213.108 88.8482 213.204 88.9082 213.3 88.9802L214.32 89.7482C214.464 89.8562 214.5 89.8922 214.5 89.9882C214.5 90.1442 214.452 90.1802 214.02 90.4322V90.8162C214.02 90.9722 214.056 91.6562 214.056 91.8002C214.056 92.1122 213.984 92.2082 213.696 92.3162L214.62 93.0122C214.812 93.1562 214.848 93.2282 214.848 93.3242C214.848 93.5042 214.56 93.6482 214.356 93.7562V95.8802C214.356 96.3242 214.392 97.1162 214.392 97.3322C214.392 97.6682 214.392 98.0642 213.072 98.0642C212.64 98.0642 212.64 97.8842 212.64 97.6082H208.176ZM212.304 89.9522H207.72V91.5722H212.304V89.9522ZM212.304 91.9082H207.72C207.708 92.1482 207.708 92.4962 206.436 92.4722L207.564 92.9042H212.556L212.94 92.4362C212.304 92.4722 212.304 92.3042 212.304 91.9082ZM212.64 94.3322V93.2402H207.408V94.3322H212.64ZM212.64 95.7962V94.6682H207.408V95.7962H212.64ZM212.64 97.2722V96.1322H207.408V97.2722H212.64ZM210.612 98.0162L210.648 97.8842C211.86 97.9562 212.808 98.0402 213.528 98.1602C213.84 98.2082 215.292 98.4482 215.292 99.3122C215.292 99.8402 214.752 100.092 214.32 100.092C213.936 100.092 213.828 100.008 212.88 99.3242C212.376 98.9642 211.908 98.6162 210.612 98.0162ZM219.132 91.0562V90.2042C219.132 89.8682 219.132 89.2442 219.084 88.7282L220.764 88.9082C220.908 88.9202 221.088 88.9442 221.088 89.0882C221.088 89.2442 220.884 89.3042 220.632 89.3762V91.0562H221.004L221.58 90.2042C221.676 90.0602 221.724 90.0362 221.784 90.0362C221.832 90.0362 221.88 90.0362 222.036 90.1802L223.02 91.0442C223.056 91.0802 223.14 91.1522 223.14 91.2482C223.14 91.3922 223.008 91.3922 222.888 91.3922H220.632V93.0122H221.316L221.892 92.1602C221.988 92.0282 222.036 91.9922 222.096 91.9922C222.18 91.9922 222.288 92.1002 222.336 92.1362L223.32 93.0122C223.404 93.0842 223.416 93.1082 223.44 93.1562V91.0802C223.44 90.6122 223.416 90.1442 223.404 89.7842L224.844 89.9522C224.952 89.9642 225.12 89.9882 225.12 90.1442C225.12 90.2882 225.024 90.3242 224.76 90.4202V95.1362C224.76 95.3522 224.784 96.2882 224.784 96.4802C224.784 96.8522 224.484 96.9962 223.848 96.9962C223.464 96.9962 223.404 96.9122 223.404 96.6362C223.404 96.4082 223.44 95.3762 223.44 95.1602V93.2642C223.404 93.3242 223.392 93.3602 223.188 93.3602H220.632V94.8122H221.328L221.736 94.2962C221.784 94.2362 221.832 94.1642 221.952 94.1642C222.012 94.1642 222.06 94.1762 222.168 94.2602L223.152 95.0762C223.2 95.1122 223.272 95.1722 223.272 95.2682C223.272 95.4002 223.236 95.4242 222.816 95.6762V96.9962C222.816 98.2562 222.816 98.4002 222.696 98.6402C222.468 99.0962 221.808 99.1802 221.304 99.2162C221.304 98.1362 221.016 97.7762 220.632 97.5722V98.4002C220.632 98.5682 220.644 99.3362 220.644 99.5042C220.644 99.7202 220.644 99.8162 220.368 99.9362C220.128 100.044 219.78 100.08 219.576 100.08C219.24 100.08 219.108 100.02 219.108 99.7202C219.108 99.5282 219.132 98.6642 219.132 98.4842V95.1482H218.364V97.3562C218.364 97.5602 218.388 98.4842 218.388 98.6762C218.388 98.8562 218.388 99.2882 217.476 99.2882C216.972 99.2882 216.972 99.1082 216.972 98.8682C216.972 98.6402 216.996 97.5362 216.996 97.3802V95.7242C216.996 95.4962 216.984 94.4642 216.984 94.2482L218.46 94.8122H219.132V93.3602H217.488C217.248 93.3602 217.032 93.3602 216.54 93.4082L216.36 92.9762C216.708 93.0002 217.092 93.0122 217.572 93.0122H219.132V91.3922H217.848C217.56 91.8482 217.284 92.2562 216.78 92.7602L216.648 92.7002C216.924 91.3682 217.116 90.1682 217.104 89.1242L218.604 89.4962C218.856 89.5562 218.988 89.5922 218.988 89.7242C218.988 89.9282 218.736 89.9522 218.58 89.9762C218.364 90.4922 218.22 90.7562 218.052 91.0562H219.132ZM220.632 95.1482V97.3922L221.1 97.4162C221.352 97.4282 221.424 97.3202 221.424 97.0802V95.1482H220.632ZM225.432 88.7402L227.148 88.9442C227.292 88.9562 227.472 88.9802 227.472 89.1242C227.472 89.2682 227.292 89.3282 227.016 89.4242V97.0562C227.016 97.2962 227.04 98.3162 227.04 98.5322C227.04 99.6602 226.596 100.008 224.784 100.104C224.784 98.7842 224.316 98.5922 223.44 98.1962V98.0522L225.108 98.0882C225.432 98.1002 225.48 98.0162 225.48 97.8002V90.1082C225.48 89.3882 225.456 89.0282 225.432 88.7402Z" fill="white"/>
<circle cx="214" cy="118" r="2" fill="#B78C52"/>
<circle cx="225" cy="114" r="2" fill="#B78C52"/>
<circle cx="234" cy="108" r="2" fill="#B78C52"/>
<path d="M146 29.0002C150.833 20.8336 165.2 4.30024 188 1.50024" stroke="#FFDBAB" stroke-width="2" stroke-linecap="round"/>
<circle cx="334" cy="61.0002" r="60" fill="#121110" fill-opacity="0.7"/>
<path d="M315.424 89.8682L315.952 89.1002C315.988 89.0402 316.06 88.9562 316.18 88.9562C316.252 88.9562 316.3 88.9682 316.468 89.1002L317.224 89.7122C317.332 89.8082 317.608 90.0242 317.608 90.2162C317.608 90.3962 317.548 90.5162 316.492 90.7682C316.66 91.6922 316.984 93.4682 318.076 95.0282C318.532 95.6882 319.768 97.1642 321.784 97.9322V98.0762C321.184 98.3042 320.728 99.1082 320.512 99.9122C317.896 98.3402 316.828 96.0242 316.264 93.6002C315.304 97.5122 312.676 99.3242 310.54 99.9842L310.468 99.8522C312.04 98.4362 314.32 96.3722 314.944 91.5242L316 92.0162C315.916 91.1522 315.904 90.7562 315.88 90.2042H313.864C313.54 90.2042 313.384 90.2042 312.928 90.2522L312.748 89.8202C313.084 89.8442 313.468 89.8682 313.96 89.8682H315.424ZM326.656 100.08L326.584 99.9602C329.176 97.9922 329.764 96.5882 330.112 95.6282H329.632C328.468 97.9562 326.296 98.8322 325.66 99.0842L325.576 98.9642C327.532 97.2602 328.024 96.0722 328.204 95.6282H328.168C327.316 96.7082 326.296 97.2962 325.324 97.7162L325.228 97.6082C326.62 96.0002 327.064 95.1002 327.292 94.3082H326.884C326.56 94.3082 326.428 94.3082 325.828 94.3442L325.672 93.9242C326.044 93.9482 326.404 93.9602 326.884 93.9602H331.528L331.816 93.5282C331.624 93.5522 331.456 93.5522 331.42 93.5522C330.988 93.5522 330.94 93.3962 330.94 93.1442V93.0482H328.288C328.288 93.2522 328.276 93.3602 327.988 93.4682C327.76 93.5522 327.424 93.5762 327.184 93.5762C326.704 93.5762 326.704 93.4922 326.728 92.6282C326.668 92.6642 326.584 92.6642 326.512 92.6642H325.192V96.0242C325.696 95.8802 325.888 95.8202 326.296 95.6762L326.356 95.8082C325.816 96.4322 325.384 96.8402 324.988 97.1522C323.788 98.1122 323.656 98.2202 323.452 98.3882C323.416 98.7602 323.32 98.7842 323.248 98.7842C323.116 98.7842 323.092 98.7122 322.984 98.4602L322.228 96.6362C322.672 96.5882 322.948 96.5522 323.596 96.4202V92.6642C323.2 92.6642 323.068 92.6642 322.468 92.7122L322.324 92.2802C322.792 92.3162 323.068 92.3282 323.596 92.3282V90.2762C323.596 89.7842 323.596 89.4122 323.548 88.8962L325.3 89.0762C325.48 89.1002 325.636 89.1242 325.636 89.2562C325.636 89.4122 325.492 89.4602 325.192 89.5682V92.3282H325.228L325.648 91.6442C325.708 91.5602 325.78 91.5002 325.864 91.5002C325.96 91.5002 326.032 91.5722 326.08 91.6322L326.68 92.3402L326.74 92.4002C326.74 92.1842 326.752 91.8362 326.752 91.7522V90.5042C326.752 89.7842 326.728 89.3882 326.716 89.0042L328.444 89.6282H330.88L331.372 89.0642C331.456 88.9682 331.516 88.9082 331.612 88.9082C331.72 88.9082 331.876 89.0162 331.912 89.0402L332.788 89.6522C332.932 89.7482 332.98 89.7842 332.98 89.8802C332.98 89.9522 332.968 90.0362 332.56 90.2282V91.4642C332.56 91.7282 332.608 92.8562 332.584 93.0842L333.58 93.9722C333.616 93.9962 333.688 94.0682 333.688 94.1522C333.688 94.2962 333.532 94.3082 333.424 94.3082H329.008C328.816 94.6802 328.684 94.8962 328.42 95.2922H331.564L332.068 94.6682C332.116 94.6202 332.152 94.5602 332.236 94.5602C332.308 94.5602 332.356 94.5962 332.452 94.6682L333.412 95.3762C333.484 95.4242 333.592 95.5202 333.592 95.6162C333.592 95.7602 333.412 95.8442 333.148 95.9762C332.86 99.9962 332.236 100.008 330.376 100.092C330.352 99.3602 330.34 98.9522 329.5 98.5802C328.912 99.0482 328.288 99.5282 326.656 100.08ZM331.6 95.6282C330.832 97.2842 330.208 97.9082 329.8 98.3162C329.932 98.3162 330.7 98.3402 330.724 98.3402C331.204 98.3402 331.264 98.1722 331.36 97.7762C331.432 97.4522 331.588 96.3602 331.6 95.6282ZM330.94 89.9642H328.288V91.1402H330.94V89.9642ZM330.94 91.4762H328.288V92.7122H330.94V91.4762ZM336.268 96.1802V93.5642H335.488C335.248 93.5642 334.996 93.5642 334.552 93.6122L334.372 93.1802C334.756 93.2042 335.104 93.2282 335.584 93.2282H336.268V91.7282C335.488 92.3162 335.092 92.5202 334.588 92.7602L334.48 92.6522C334.864 92.1842 336.148 90.6002 336.724 88.6922L338.512 89.3282C338.608 89.3642 338.776 89.4482 338.776 89.5442C338.776 89.7242 338.512 89.7362 338.296 89.7482C338.08 90.0362 337.996 90.1322 337.84 90.3002H342.628L343.324 89.2442C343.324 89.2322 343.432 89.0762 343.54 89.0762C343.624 89.0762 343.684 89.1242 343.792 89.2202L345.028 90.2762C345.076 90.3122 345.148 90.3842 345.148 90.4802C345.148 90.6362 344.968 90.6362 344.908 90.6362H343.696V93.2282H343.948L344.356 92.5802C344.416 92.4602 344.476 92.3762 344.572 92.3762C344.632 92.3762 344.644 92.3882 344.812 92.5322L345.58 93.2402C345.628 93.2882 345.688 93.3602 345.688 93.4322C345.688 93.5642 345.532 93.5642 345.388 93.5642H343.696V96.1802H343.816L344.2 95.4962C344.284 95.3522 344.32 95.2922 344.404 95.2922C344.476 95.2922 344.524 95.3402 344.644 95.4602L345.376 96.2042C345.436 96.2762 345.484 96.3122 345.484 96.3842C345.484 96.5162 345.316 96.5162 345.184 96.5162H335.752C335.5 96.5162 335.248 96.5162 334.816 96.5642L334.636 96.1322C335.008 96.1562 335.368 96.1802 335.848 96.1802H336.268ZM337.66 93.5642V96.1802H338.344V93.5642H337.66ZM339.604 93.5642V96.1802H340.288V93.5642H339.604ZM337.66 90.6362V93.2282H338.344V90.6362H337.66ZM339.604 90.6362V93.2282H340.288V90.6362H339.604ZM342.256 90.6362H341.536V93.2282H342.256V90.6362ZM342.256 93.5642H341.536V96.1802H342.256V93.5642ZM336.448 96.8162H336.592C336.736 97.2962 336.796 97.6202 336.796 98.0042C336.796 99.1082 336.508 100.032 335.488 100.032C334.828 100.032 334.552 99.6962 334.552 99.3122C334.552 98.9882 334.624 98.9042 335.332 98.2322C335.92 97.6682 336.124 97.4162 336.448 96.8162ZM337.612 96.8642L337.708 96.7682C337.948 96.8882 339.64 97.7402 339.64 98.9762C339.64 99.7562 339.04 99.9962 338.656 99.9962C338.008 99.9962 337.984 99.5522 337.948 99.0122C337.888 97.9442 337.792 97.5002 337.612 96.8642ZM340.096 96.9002L340.192 96.7922C340.924 97.0562 342.364 97.7642 342.364 98.8562C342.364 99.4802 341.932 99.9362 341.428 99.9362C340.864 99.9362 340.792 99.6002 340.636 98.7602C340.492 97.9922 340.348 97.4282 340.096 96.9002ZM342.472 96.9362L342.544 96.8282C343.588 97.0442 345.316 97.8242 345.316 98.9762C345.316 99.5162 344.98 100.032 344.404 100.032C343.936 100.032 343.828 99.7682 343.564 99.0602C343.216 98.1002 343 97.6202 342.472 96.9362ZM349.912 94.3442V97.1882C349.912 97.5482 349.936 99.1322 349.936 99.4562C349.936 99.6602 349.936 100.08 348.82 100.08C348.376 100.08 348.34 99.9002 348.34 99.6122C348.34 99.5042 348.364 97.7042 348.364 97.4402V96.1682C348.244 96.3482 347.584 97.2842 346.312 98.1362L346.204 98.0402C346.564 97.4282 347.536 95.7842 348.232 93.2882H347.536C347.164 93.2882 347.128 93.2882 346.528 93.3362L346.372 92.9042C346.72 92.9282 347.104 92.9522 347.584 92.9522H348.364V90.1922C348.364 89.6402 348.352 89.3162 348.316 88.7522L350.068 88.9562C350.14 88.9682 350.368 88.9922 350.368 89.1482C350.368 89.2682 350.272 89.3282 349.912 89.4362V92.9522H350.572L350.932 92.3762C351.004 92.2682 351.064 92.1962 351.148 92.1962C351.244 92.1962 351.328 92.2802 351.364 92.3282L351.928 92.9522C351.964 93.0002 352.036 93.0722 352.036 93.1442C352.036 93.2882 351.868 93.2882 351.76 93.2882H349.912V93.9602C350.776 94.2122 351.76 94.8602 351.76 95.8922C351.76 95.9762 351.76 96.1922 351.604 96.4322C351.964 96.3722 352.336 96.3002 352.684 96.2162L354.7 95.7242V90.6002C354.7 89.3642 354.676 89.1362 354.652 88.7642L356.404 88.9562C356.548 88.9682 356.764 89.0042 356.764 89.1602C356.764 89.3162 356.62 89.3642 356.32 89.4482V95.3162L356.428 95.2922L356.656 94.6202C356.68 94.5362 356.728 94.3922 356.824 94.3922C356.908 94.3922 356.956 94.4402 357.016 94.4882L357.64 95.0162C357.7 95.0762 357.748 95.1362 357.748 95.2082C357.748 95.3162 357.664 95.3522 357.556 95.3762L356.32 95.6762V97.0202C356.32 97.4042 356.344 99.0842 356.344 99.4322C356.344 99.7082 356.344 100.08 355.144 100.08C354.676 100.08 354.676 99.9362 354.676 99.5762C354.676 99.4682 354.7 97.8722 354.7 97.5482V96.0722L352.72 96.5522C352.432 96.6242 352.264 96.6602 351.736 96.8402L351.532 96.5162C351.388 96.6722 351.208 96.7562 351.004 96.7562C350.56 96.7562 350.524 96.4682 350.44 95.9522C350.368 95.5202 350.2 94.8842 349.912 94.3442ZM351.94 89.5322L352.036 89.4242C353.2 89.6042 354.34 90.2282 354.34 91.2242C354.34 91.8002 353.932 92.1122 353.548 92.1122C353.116 92.1122 352.972 91.7762 352.84 91.4042C352.432 90.3002 352.396 90.1922 351.94 89.5322ZM351.916 92.6162L352.012 92.5082C353.464 92.7722 354.232 93.5162 354.232 94.4282C354.232 95.0882 353.656 95.2682 353.368 95.2682C352.972 95.2682 352.912 95.1842 352.612 94.3082C352.336 93.4922 352.144 92.9762 351.916 92.6162ZM346.444 89.6762L346.552 89.5802C346.852 89.7122 348.292 90.3962 348.292 91.5362C348.292 92.1602 347.944 92.4002 347.548 92.4002C347.164 92.4002 347.128 92.2922 346.972 91.3922C346.876 90.8762 346.66 90.1322 346.444 89.6762ZM350.74 89.5802L351.988 90.1682C352.252 90.2882 352.288 90.3122 352.288 90.4082C352.288 90.5402 352.132 90.5522 351.892 90.5762C351.172 91.4882 350.992 91.7282 350.116 92.4482L349.984 92.3762C350.368 91.4042 350.644 90.3362 350.74 89.5802Z" fill="white"/>
<path d="M298.72 78.5042L298.84 78.4562C299.14 78.7922 299.392 78.8762 299.884 78.8762C300.412 78.8762 302.752 78.6002 303.232 78.5642C303.244 77.5322 303.256 76.2242 303.22 75.4802C303.208 75.1082 303.172 74.6882 303.028 74.3882C302.8 74.4242 302.608 74.4602 302.152 74.5442C302.056 74.5682 301.36 74.7002 301.288 74.7002C300.796 74.7002 300.1 73.9442 300.1 73.3442C300.1 73.2722 300.112 73.1762 300.124 73.0802L300.256 73.0202C300.472 73.2482 300.688 73.3922 301.396 73.3922C302.128 73.3922 304.936 73.1762 305.608 73.0562C305.752 73.0322 306.412 72.8282 306.556 72.8282C306.904 72.8282 307.852 73.2242 307.852 73.7642C307.852 74.2442 307.132 74.2442 306.952 74.2442C306.712 74.2442 305.668 74.2082 305.464 74.2082C305.092 74.2082 304.516 74.2322 304.384 74.2442C304.708 74.4722 304.852 74.6282 304.852 74.9162C304.852 75.0962 304.744 75.8762 304.732 76.0442C304.72 76.2842 304.672 77.3162 304.66 78.4802C304.996 78.4682 306.532 78.4322 306.844 78.4202C307 78.4202 307.672 78.3482 307.816 78.3482C308.524 78.3482 309.22 79.0562 309.22 79.4762C309.22 79.7282 308.992 79.9202 308.644 79.9202C308.62 79.9202 307.504 79.7642 307.444 79.7522C306.844 79.6682 306.364 79.6082 305.404 79.6082C304.144 79.6082 302.38 79.7162 301.156 80.0042C300.964 80.0522 300.136 80.3162 299.968 80.3162C299.476 80.3162 298.66 79.5482 298.66 78.8642C298.66 78.7562 298.672 78.6842 298.72 78.5042ZM311.944 72.3122L312.004 72.1922C313.108 72.3122 315.76 72.8522 315.76 74.4122C315.76 74.9162 315.484 75.4322 315.004 75.4322C314.572 75.4322 314.356 75.0722 314.128 74.7122C313.24 73.2842 312.34 72.6122 311.944 72.3122ZM312.004 78.6962L312.136 78.6602C312.292 78.8162 312.628 79.1642 313.132 79.1642C313.924 79.1642 318.016 77.0162 320.884 73.4762L321.004 73.5602C319.636 77.1962 317.356 78.6842 314.5 80.5682C314.404 80.6282 314.02 80.9402 313.936 81.0002C313.816 81.0842 313.696 81.1442 313.54 81.1442C312.964 81.1442 311.944 80.1602 311.944 79.2362C311.944 79.0082 311.968 78.8402 312.004 78.6962ZM326.344 80.2802L326.428 79.6202C326.488 79.1762 326.488 79.0682 326.488 78.5282V73.1402C326.464 72.2642 326.38 72.0602 325.576 71.8562V71.7242C325.756 71.5802 326.068 71.3522 326.488 71.3522C327.1 71.3522 328.252 71.8562 328.252 72.3842C328.252 72.5162 328.048 73.0562 328.012 73.1762C327.904 73.6322 327.88 74.7122 327.88 75.0482C329.284 75.2522 330.412 75.6602 330.892 75.9242C331.108 76.0442 331.84 76.4402 331.84 77.2562C331.84 77.8082 331.48 78.0722 331.168 78.0722C330.748 78.0722 330.652 77.9642 329.716 76.9802C329.38 76.6202 328.624 76.0442 327.88 75.6482C327.892 76.4282 328.048 79.8722 328.048 80.5682C328.048 80.9042 328.048 81.6722 327.34 81.6722C326.56 81.6722 326.344 80.5322 326.344 80.2802ZM336.772 72.1202L336.904 72.0602C337.12 72.2642 337.312 72.4322 337.996 72.4322C338.404 72.4322 340.528 72.2882 341.236 72.1442C341.368 72.1202 341.944 71.9162 342.064 71.9162C342.472 71.9162 343.36 72.3002 343.36 72.7922C343.36 73.2602 342.976 73.2722 341.608 73.3442C341.368 73.3562 340.012 73.4162 339.028 73.5362C338.848 73.5602 338.104 73.7042 337.948 73.7042C337.408 73.7042 336.712 73.0802 336.712 72.4802C336.712 72.3482 336.748 72.2282 336.772 72.1202ZM335.5 74.4722L335.632 74.4362C335.908 74.7842 336.172 75.0002 337.036 75.0002C337.612 75.0002 342.052 74.6762 342.592 74.4242C343.012 74.2322 343.06 74.2082 343.18 74.2082C343.6 74.2082 344.488 74.9162 344.488 75.2882C344.488 75.4442 344.404 75.5402 344.152 75.7322C343.9 75.9362 343.84 76.0562 343.636 76.5242C342.208 79.7762 340.096 81.0842 337.18 81.5522L337.132 81.4202C338.452 80.7602 340.552 79.3682 341.68 76.9322C341.908 76.4402 342.124 75.8522 342.124 75.7442C342.124 75.6482 342.028 75.6362 341.968 75.6362C341.632 75.6362 338.944 75.9842 337.948 76.1882C337.744 76.2362 336.868 76.5242 336.676 76.5242C336.1 76.5242 335.404 75.5642 335.404 74.9642C335.404 74.7602 335.452 74.6162 335.5 74.4722ZM347.944 72.3122L348.004 72.1922C349.108 72.3122 351.76 72.8522 351.76 74.4122C351.76 74.9162 351.484 75.4322 351.004 75.4322C350.572 75.4322 350.356 75.0722 350.128 74.7122C349.24 73.2842 348.34 72.6122 347.944 72.3122ZM348.004 78.6962L348.136 78.6602C348.292 78.8162 348.628 79.1642 349.132 79.1642C349.924 79.1642 354.016 77.0162 356.884 73.4762L357.004 73.5602C355.636 77.1962 353.356 78.6842 350.5 80.5682C350.404 80.6282 350.02 80.9402 349.936 81.0002C349.816 81.0842 349.696 81.1442 349.54 81.1442C348.964 81.1442 347.944 80.1602 347.944 79.2362C347.944 79.0082 347.968 78.8402 348.004 78.6962ZM359.056 81.1082L359.008 80.9762C360.532 80.0882 363.088 78.3842 364.864 74.5082C365.056 74.1002 365.248 73.6322 365.248 73.5722C365.248 73.5362 365.212 73.5242 365.176 73.5242C364.96 73.5242 362.536 73.9802 361.984 74.2682C361.576 74.4722 361.528 74.4962 361.372 74.4962C360.844 74.4962 360.28 73.5482 360.28 73.0442C360.28 72.7442 360.388 72.5042 360.472 72.3122L360.616 72.2882C360.784 72.6122 360.964 72.8762 361.624 72.8762C361.984 72.8762 365.008 72.6242 365.404 72.4322C365.488 72.3962 365.524 72.3722 365.812 72.1682C365.848 72.1442 365.956 72.0722 366.076 72.0722C366.496 72.0722 367.504 72.9002 367.504 73.3202C367.504 73.4522 367.492 73.4522 367.12 73.7402C367 73.8242 366.964 73.8962 366.616 74.5562C365.908 75.9122 365.608 76.3562 365.236 76.9202C366.688 77.5562 368.716 78.6242 368.716 79.9922C368.716 80.5442 368.356 80.9282 367.936 80.9282C367.516 80.9282 367.408 80.7242 367.06 80.0402C366.364 78.7082 365.368 77.6642 364.972 77.2802C362.98 80.0042 360.64 80.7482 359.056 81.1082Z" fill="#B78C52"/>
<rect x="360" y="32.0002" width="28" height="53" rx="12" transform="rotate(90 360 32.0002)" fill="#B78C52"/>
<path d="M328 34.0002L331 26.2502C331 26.2502 331.5 24.0002 334 24.0002C336.5 24.0003 337 26.2502 337 26.2502L340 34.0002" stroke="#B78C52" stroke-linecap="round"/>
<path d="M323.06 40.3902V41.9952H317.435V45.1302H321.695V46.7352H317.435V52.0302H315.395V40.3902H323.06ZM324.916 40.3902H329.101C331.936 40.3902 333.226 41.5302 333.226 43.5552C333.226 44.9952 332.416 46.0602 330.916 46.5102L333.601 52.0302H331.426L329.071 46.8102C328.906 46.8102 328.741 46.8252 328.546 46.8252H326.896V52.0302H324.916V40.3902ZM326.896 41.9052V45.3252H328.921C330.511 45.3252 331.201 44.6652 331.201 43.5852C331.201 42.5502 330.616 41.9052 329.011 41.9052H326.896ZM343.085 40.3902V41.9952H337.43V45.0702H341.705V46.6752H337.43V50.4252H343.205V52.0302H335.405V40.3902H343.085ZM352.811 40.3902V41.9952H347.156V45.0702H351.431V46.6752H347.156V50.4252H352.931V52.0302H345.131V40.3902H352.811Z" fill="#121110"/>
<circle cx="352" cy="118" r="2" fill="#B78C52"/>
<circle cx="363" cy="114" r="2" fill="#B78C52"/>
<circle cx="372" cy="108" r="2" fill="#B78C52"/>
<path d="M284 29.0002C288.833 20.8336 303.2 4.30024 326 1.50024" stroke="#FFDBAB" stroke-width="2" stroke-linecap="round"/>
<circle cx="334" cy="25.0002" r="3" fill="#B78C52"/>
</svg>
