<svg width="99" height="18" viewBox="0 0 99 18" fill="none" xmlns="http://www.w3.org/2000/svg">
<path d="M2.14588 12.2294V17.8087H0V0.756592H4.88187C6.30735 0.948188 7.49524 1.52298 8.45322 2.48862C9.56448 3.59988 10.1239 4.93339 10.1239 6.48149C10.1239 8.02958 9.55682 9.38608 8.43023 10.5203C7.30365 11.6622 5.90883 12.2294 4.2611 12.2294H2.15354H2.14588ZM2.14588 2.62657V10.3517H4.25344C5.24974 10.3517 6.11575 9.98386 6.85914 9.24047C7.60254 8.50474 7.9704 7.57742 7.9704 6.47382C7.9704 5.37023 7.60254 4.45823 6.85914 3.7225C6.11575 2.98677 5.24974 2.61891 4.25344 2.61891H2.14588V2.62657Z" fill="#B78C52"/>
<path d="M15.8258 0.756592V17.8087H13.6799V0.756592H15.8258Z" fill="#B78C52"/>
<path d="M33.6749 14.0534L35.1693 15.3793C33.2534 17.1266 31.1382 18.0003 28.8313 18.0003C26.3483 18.0003 24.256 17.1419 22.547 15.4329C20.838 13.7239 19.9796 11.67 19.9796 9.27883C19.9796 6.88771 20.838 4.86446 22.547 3.14009C24.256 1.41573 26.3559 0.557373 28.8313 0.557373C31.1382 0.557373 33.2534 1.43105 35.1693 3.18607L33.6749 4.51192C32.1115 3.13243 30.4944 2.43502 28.8237 2.43502C27.0073 2.43502 25.4363 3.09411 24.1104 4.41995C22.7846 5.7458 22.1255 7.36287 22.1255 9.27117C22.1255 11.1795 22.7846 12.8195 24.1104 14.1454C25.4363 15.4712 27.0073 16.1226 28.8237 16.1226C30.4867 16.1226 32.1038 15.4329 33.6749 14.0457V14.0534Z" fill="#B78C52"/>
<path d="M44.0595 12.2294H42.0592V17.8087H39.9134V0.756592H44.7952C46.2207 0.948188 47.4086 1.52298 48.3666 2.48862C49.4778 3.59988 50.0373 4.93339 50.0373 6.48149C50.0373 8.02958 49.4625 9.38608 48.3206 10.5357C47.5619 11.302 46.8875 11.7542 46.305 11.8998L50.1369 17.8163H47.6615L44.0748 12.237L44.0595 12.2294ZM42.0592 2.62657V10.3517H44.1668C45.1631 10.3517 46.0291 9.98386 46.7725 9.24047C47.5159 8.50474 47.8838 7.57741 47.8838 6.47382C47.8838 5.37023 47.5159 4.45823 46.7725 3.7225C46.0291 2.98677 45.1631 2.61891 44.1668 2.61891H42.0592V2.62657Z" fill="#B78C52"/>
<path d="M68.6374 3.10176C70.3541 4.82612 71.2125 6.87237 71.2125 9.25583C71.2125 11.6393 70.3541 13.7085 68.6374 15.4252C66.9207 17.1419 64.8208 18.0003 62.3377 18.0003C59.8547 18.0003 57.7701 17.1419 56.0534 15.4252C54.3367 13.7085 53.4783 11.6546 53.4783 9.25583C53.4783 6.85705 54.3367 4.82612 56.0534 3.10176C57.7701 1.37739 59.87 0.519043 62.3377 0.519043C64.8055 0.519043 66.9207 1.37739 68.6374 3.10176ZM62.3377 2.38902C60.5214 2.38902 58.9503 3.05577 57.6245 4.38928C56.2986 5.72279 55.6319 7.33987 55.6319 9.25583C55.6319 11.1718 56.2986 12.8119 57.6245 14.1377C58.9503 15.4635 60.5214 16.1303 62.3377 16.1303C64.1541 16.1303 65.7405 15.4635 67.0663 14.1377C68.3922 12.8119 69.0589 11.1795 69.0589 9.25583C69.0589 7.3322 68.3922 5.72279 67.0663 4.38928C65.7405 3.05577 64.1617 2.38902 62.3377 2.38902Z" fill="#B78C52"/>
<path d="M79.3361 8.83433C78.1099 8.42815 77.129 7.86102 76.3856 7.11763C75.6422 6.37424 75.2743 5.47756 75.2743 4.42762C75.2743 3.37767 75.6575 2.49633 76.4316 1.72228C77.1979 0.948233 78.1559 0.557373 79.3055 0.557373C80.4551 0.557373 81.4054 0.955897 82.2101 1.75294C82.6316 2.16678 82.9535 2.74157 83.1987 3.48496L81.2751 4.22836C81.0375 3.59226 80.8229 3.17075 80.6313 2.98682C80.2481 2.5883 79.8036 2.3967 79.3055 2.3967C78.8073 2.3967 78.3782 2.58829 77.995 2.97149C77.6118 3.35468 77.4202 3.84517 77.4202 4.43528C77.4202 5.0254 77.6194 5.51588 78.0103 5.92973C78.4242 6.32825 78.9836 6.68845 79.6963 7.018C81.0528 7.4625 82.1948 8.13692 83.1068 9.05658C84.1567 10.0989 84.6855 11.3327 84.6855 12.7506C84.6855 14.1684 84.1644 15.4022 83.1298 16.4445C82.0951 17.4868 80.8153 18.0003 79.3055 18.0003C77.7957 18.0003 76.5082 17.4638 75.4506 16.3985C74.6305 15.5862 74.1247 14.5286 73.9331 13.2334L75.9947 12.49C76.1173 13.7315 76.4699 14.6359 77.0523 15.203C77.6884 15.8391 78.4318 16.1533 79.3055 16.1533C80.1792 16.1533 80.9456 15.8314 81.597 15.1723C82.2484 14.5209 82.578 13.7162 82.578 12.7506C82.578 11.7849 82.2561 10.9879 81.62 10.3441C80.9685 9.70801 80.2098 9.2022 79.3438 8.842L79.3361 8.83433Z" fill="#B78C52"/>
<path d="M93.2153 8.83433C91.9891 8.42815 91.0081 7.86102 90.2647 7.11763C89.5213 6.37424 89.1535 5.47756 89.1535 4.42762C89.1535 3.37767 89.5367 2.49633 90.3107 1.72228C91.0771 0.948233 92.0351 0.557373 93.1847 0.557373C94.3342 0.557373 95.2845 0.955897 96.0893 1.75294C96.5108 2.16678 96.8326 2.74157 97.0779 3.48496L95.1543 4.22836C94.9167 3.59226 94.7021 3.17075 94.5105 2.98682C94.1273 2.5883 93.6828 2.3967 93.1847 2.3967C92.6865 2.3967 92.2573 2.58829 91.8741 2.97149C91.4909 3.35468 91.2993 3.84517 91.2993 4.43528C91.2993 5.0254 91.4986 5.51588 91.8895 5.92973C92.3033 6.32825 92.8628 6.68845 93.5755 7.018C94.932 7.4625 96.0739 8.13692 96.9859 9.05658C98.0359 10.0989 98.5647 11.3327 98.5647 12.7506C98.5647 14.1684 98.0435 15.4022 97.0089 16.4445C95.9743 17.4868 94.6944 18.0003 93.1847 18.0003C91.6749 18.0003 90.3874 17.4638 89.3297 16.3985C88.5097 15.5862 88.0039 14.5286 87.8123 13.2334L89.8739 12.49C89.9965 13.7315 90.349 14.6359 90.9315 15.203C91.5676 15.8391 92.311 16.1533 93.1847 16.1533C94.0583 16.1533 94.8247 15.8314 95.4761 15.1723C96.1276 14.5209 96.4571 13.7162 96.4571 12.7506C96.4571 11.7849 96.1352 10.9879 95.4991 10.3441C94.8477 9.70801 94.089 9.2022 93.223 8.842L93.2153 8.83433Z" fill="#B78C52"/>
</svg>
