<svg width="430" height="109" viewBox="0 0 430 109" fill="none" xmlns="http://www.w3.org/2000/svg">
<rect width="430" height="109" fill="url(#paint0_linear_1_410)"/>
<rect x="13" y="47" width="402" height="52" rx="26" fill="#4D3A27"/>
<rect x="13" y="42" width="402" height="52" rx="26" fill="url(#paint1_linear_1_410)"/>
<path d="M123.82 71.02H121.74C119.86 71.02 119.22 71.06 119.1 71.06C118.88 71.06 118.86 71.04 118.86 70.84V69.34C118.86 69.14 118.88 69.12 119.1 69.12C119.22 69.12 119.86 69.16 121.74 69.16H132.4C134.28 69.16 134.92 69.12 135.04 69.12C135.26 69.12 135.28 69.14 135.28 69.34V70.84C135.28 71.04 135.26 71.06 135.04 71.06C134.92 71.06 134.28 71.02 132.4 71.02H126.22C125.72 72.26 125.12 73.52 124.44 74.78C126.52 74.66 128.7 74.48 130.6 74.28C130.14 73.72 129.68 73.16 129.14 72.58C129 72.42 129.02 72.34 129.26 72.22L130.54 71.56C130.76 71.44 130.82 71.46 130.96 71.6C132.32 73.02 133.46 74.46 134.68 76.24C134.78 76.4 134.78 76.48 134.58 76.62L133.2 77.52C133.08 77.6 133.02 77.64 132.96 77.64C132.9 77.64 132.86 77.6 132.8 77.5C132.46 76.94 132.12 76.42 131.8 75.94C128.48 76.36 124.4 76.7 121 76.96C120.68 76.98 120.42 77.06 120.28 77.14C120.18 77.22 120.08 77.26 119.94 77.26C119.8 77.26 119.7 77.16 119.66 76.98C119.48 76.32 119.36 75.62 119.24 74.92C119.98 74.98 120.64 74.96 121.42 74.92C121.62 74.92 121.84 74.9 122.06 74.9C122.78 73.54 123.36 72.26 123.82 71.02ZM123.02 67.12V65.6C121.9 66.42 120.68 67.14 119.4 67.76C119.16 67.88 119.02 67.94 118.92 67.94C118.78 67.94 118.72 67.8 118.56 67.44C118.32 66.94 118.04 66.5 117.66 66.12C121.14 64.74 123.74 62.62 125.34 60.3C125.68 59.8 125.86 59.46 126.04 59C126.82 59.1 127.56 59.24 128.2 59.42C128.44 59.48 128.56 59.56 128.56 59.7C128.56 59.82 128.52 59.94 128.36 60.02C128.24 60.08 128.16 60.14 128.08 60.2C130.34 62.96 133.04 64.7 136.54 65.92C136.16 66.4 135.9 66.88 135.68 67.42C135.54 67.78 135.48 67.92 135.34 67.92C135.24 67.92 135.1 67.86 134.88 67.76C133.52 67.16 132.22 66.46 131.06 65.64V67.12C131.06 67.32 131.04 67.34 130.84 67.34C130.72 67.34 130.18 67.3 128.58 67.3H125.5C123.9 67.3 123.36 67.34 123.24 67.34C123.04 67.34 123.02 67.32 123.02 67.12ZM125.5 65.44H128.58C129.92 65.44 130.52 65.42 130.74 65.4C129.3 64.36 128.04 63.14 126.96 61.74C125.9 63.14 124.68 64.36 123.3 65.4C123.48 65.42 124.04 65.44 125.5 65.44ZM150.84 74H143.72C144.38 74.3 144.88 74.64 145.26 74.9C145.46 75.04 145.52 75.1 145.52 75.22C145.52 75.36 145.4 75.46 145.2 75.5C145 75.54 144.8 75.66 144.42 75.86C143.38 76.48 141.7 77.18 139.96 77.58C139.76 77.62 139.64 77.66 139.54 77.66C139.32 77.66 139.26 77.52 139.06 77.12C138.82 76.66 138.44 76.16 138.14 75.86C139.86 75.64 141.52 75.16 142.6 74.62C142.88 74.5 143.32 74.26 143.6 74H143.12C141.16 74 140.46 74.04 140.34 74.04C140.12 74.04 140.1 74.02 140.1 73.82C140.1 73.7 140.14 73.1 140.14 71.72V67.56C140.14 66.16 140.1 65.56 140.1 65.44C140.1 65.24 140.12 65.22 140.34 65.22C140.46 65.22 141.16 65.26 143.12 65.26H150.84C152.8 65.26 153.5 65.22 153.62 65.22C153.82 65.22 153.84 65.24 153.84 65.44C153.84 65.56 153.8 66.16 153.8 67.56V71.72C153.8 73.1 153.84 73.72 153.84 73.82C153.84 74.02 153.82 74.04 153.62 74.04C153.5 74.04 152.8 74 150.84 74ZM151.74 72.46V71.42H142.2V72.46H151.74ZM142.2 70.08H151.74V69.08H142.2V70.08ZM142.2 66.78V67.76H151.74V66.78H142.2ZM144.14 59.92H149.84C151.74 59.92 152.4 59.88 152.52 59.88C152.72 59.88 152.74 59.9 152.74 60.1C152.74 60.22 152.7 60.56 152.7 61.44V62.74C152.7 63.6 152.74 63.94 152.74 64.06C152.74 64.26 152.72 64.28 152.52 64.28C152.4 64.28 151.74 64.24 149.84 64.24H144.14C142.24 64.24 141.6 64.28 141.46 64.28C141.26 64.28 141.24 64.26 141.24 64.06C141.24 63.92 141.28 63.6 141.28 62.74V61.44C141.28 60.56 141.24 60.22 141.24 60.1C141.24 59.9 141.26 59.88 141.46 59.88C141.6 59.88 142.24 59.92 144.14 59.92ZM150.62 62.74V61.48H143.36V62.74H150.62ZM148.7 74.94L149.92 74.16C150.02 74.08 150.1 74.04 150.18 74.04C150.22 74.04 150.26 74.06 150.34 74.1C151.84 74.98 153.68 75.58 155.84 75.86C155.5 76.18 155.14 76.64 154.86 77.08C154.62 77.46 154.54 77.6 154.34 77.6C154.24 77.6 154.12 77.56 153.92 77.52C151.92 77.06 150.04 76.26 148.62 75.3C148.54 75.24 148.5 75.2 148.5 75.14C148.5 75.08 148.56 75.02 148.7 74.94ZM164.22 67.82H169.78C171.64 67.82 172.3 67.78 172.42 67.78C172.62 67.78 172.64 67.8 172.64 68.02C172.64 68.14 172.6 68.52 172.6 69.46V71C172.6 71.94 172.64 72.32 172.64 72.44C172.64 72.66 172.62 72.68 172.42 72.68C172.3 72.68 171.64 72.64 169.78 72.64H169.48C170.14 72.82 170.72 73 171.24 73.2C171.42 73.26 171.5 73.38 171.5 73.46C171.5 73.56 171.44 73.66 171.3 73.74C171.14 73.84 171.06 73.94 170.92 74.2L170.32 75.24H173.04C174.84 75.24 175.46 75.2 175.58 75.2C175.78 75.2 175.8 75.22 175.8 75.4V76.88C175.8 77.08 175.78 77.1 175.58 77.1C175.46 77.1 174.84 77.06 173.04 77.06H161C159.2 77.06 158.58 77.1 158.46 77.1C158.26 77.1 158.24 77.08 158.24 76.88V75.4C158.24 75.22 158.26 75.2 158.46 75.2C158.58 75.2 159.2 75.24 161 75.24H163.56C163.32 74.72 163.04 74.14 162.72 73.64C162.6 73.46 162.62 73.4 162.86 73.32L164.18 72.76C164.42 72.66 164.5 72.68 164.62 72.86C164.96 73.36 165.24 73.84 165.52 74.38C165.62 74.58 165.6 74.64 165.32 74.76L164.24 75.24H168.08C168.42 74.7 168.7 74.2 168.92 73.74C169.08 73.42 169.22 73.04 169.3 72.64H164.22C162.36 72.64 161.72 72.68 161.58 72.68C161.38 72.68 161.36 72.66 161.36 72.44C161.36 72.32 161.4 71.94 161.4 71V69.46C161.4 68.52 161.36 68.14 161.36 68.02C161.36 67.8 161.38 67.78 161.58 67.78C161.72 67.78 162.36 67.82 164.22 67.82ZM163.44 69.44V71.02H170.56V69.44H163.44ZM162.94 59.84H165.8C166.92 59.84 167.48 59.8 167.62 59.8C167.8 59.8 167.86 59.82 167.96 60.04C168.18 60.66 168.48 61.24 168.88 61.76C168.96 61.9 169.06 62.02 169.16 62.14C169.64 61.7 170.04 61.28 170.36 60.86C170.56 60.62 170.72 60.38 170.92 60.02C171.52 60.32 172.1 60.7 172.46 60.94C172.64 61.06 172.68 61.16 172.68 61.26C172.68 61.38 172.6 61.48 172.42 61.54C172.26 61.6 172.06 61.74 171.74 62.1C171.32 62.54 170.9 62.96 170.36 63.42C170.72 63.74 171.08 64.04 171.48 64.32C172.14 63.76 172.7 63.18 173.12 62.72C173.32 62.46 173.5 62.22 173.68 61.86C174.28 62.18 174.78 62.48 175.24 62.78C175.42 62.9 175.48 63 175.48 63.12C175.48 63.24 175.38 63.34 175.22 63.4C175.02 63.48 174.86 63.56 174.52 63.94C174.1 64.36 173.62 64.82 173.06 65.3C174.06 65.82 175.16 66.3 176.38 66.7C176.08 67.1 175.86 67.48 175.66 67.96C175.5 68.34 175.44 68.48 175.28 68.48C175.18 68.48 175.04 68.44 174.82 68.34C172.98 67.56 171.46 66.7 170.2 65.7V66.64C170.2 66.84 170.18 66.86 169.98 66.86C169.88 66.86 169.42 66.82 168 66.82H165.94C164.52 66.82 164.08 66.86 163.98 66.86C163.78 66.86 163.76 66.84 163.76 66.64V65.62C162.44 66.7 160.94 67.6 159.28 68.4C159.06 68.5 158.92 68.56 158.82 68.56C158.66 68.56 158.58 68.4 158.4 68.04C158.18 67.6 157.94 67.28 157.58 66.94C159 66.38 160.26 65.74 161.38 65.02C160.68 64.26 160.06 63.68 159.38 63.12C159.28 63.04 159.22 62.98 159.22 62.92C159.22 62.88 159.28 62.82 159.38 62.74L160.38 61.94C160.56 61.8 160.6 61.76 160.78 61.9C161.56 62.56 162.24 63.16 162.94 63.88C163.78 63.18 164.52 62.42 165.16 61.56H162.94C161.44 61.56 160.96 61.6 160.84 61.6C160.62 61.6 160.6 61.58 160.6 61.4V60.02C160.6 59.82 160.62 59.8 160.84 59.8C160.96 59.8 161.44 59.84 162.94 59.84ZM165.94 65.14H168C168.76 65.14 169.22 65.14 169.52 65.12C168.52 64.22 167.7 63.2 167.04 62.02C166.24 63.2 165.34 64.22 164.34 65.12C164.62 65.14 165.12 65.14 165.94 65.14ZM186.12 68.9L187 68.2C187.1 68.12 187.16 68.08 187.2 68.08C187.26 68.08 187.32 68.14 187.4 68.22C188.06 68.96 188.54 69.66 188.98 70.44C189.1 70.62 189.08 70.68 188.86 70.84L187.98 71.52C187.86 71.6 187.8 71.66 187.74 71.66C187.68 71.66 187.64 71.6 187.58 71.48C187.14 70.66 186.64 69.92 186.02 69.24C185.88 69.1 185.9 69.06 186.12 68.9ZM183.38 72.94C183.7 72.1 183.94 71.34 184.12 70.58C184.16 70.38 184.18 70.16 184.2 69.84C184.68 69.96 185.3 70.16 185.66 70.32C185.82 70.38 185.88 70.44 185.88 70.52C185.88 70.62 185.84 70.68 185.76 70.74C185.64 70.82 185.58 70.92 185.5 71.16C185.34 71.68 185.14 72.24 184.86 72.9C184.74 73.2 184.68 73.34 184.54 73.34C184.46 73.34 184.32 73.28 184.12 73.18C183.92 73.08 183.64 73 183.38 72.94ZM193.42 67.64H191.52C191.8 68.68 192.14 69.62 192.6 70.46C193.14 69.94 193.62 69.42 194.08 68.8C194.24 68.58 194.4 68.34 194.54 68.04C195.04 68.38 195.36 68.64 195.82 69.04C195.94 69.16 196.02 69.28 196.02 69.38C196.02 69.46 195.92 69.56 195.76 69.66C195.6 69.76 195.44 69.88 195.2 70.18C194.76 70.72 194.18 71.3 193.52 71.9C194.34 72.98 195.34 73.86 196.52 74.58C196.22 74.94 195.92 75.44 195.7 75.98C195.58 76.26 195.52 76.38 195.4 76.38C195.3 76.38 195.18 76.3 195 76.14C193.32 74.68 192.18 73.06 191.46 71.08C191.46 73.42 191.56 74.56 191.56 75.48C191.56 76.24 191.46 76.8 190.9 77.18C190.52 77.42 189.98 77.56 188.84 77.58C188.2 77.6 188.22 77.6 188.08 76.98C187.96 76.44 187.76 75.98 187.48 75.56C188.08 75.62 188.44 75.64 188.88 75.64C189.52 75.64 189.68 75.48 189.68 75.02V73.46C188.74 74.18 187.76 74.88 186.88 75.38C186.62 75.54 186.44 75.68 186.36 75.8C186.3 75.9 186.2 75.98 186.12 75.98C186.04 75.98 185.96 75.96 185.86 75.82C185.6 75.44 185.36 75 185.08 74.46C185.06 74.56 185.06 74.68 185.06 74.78C185.04 75.44 185.04 75.4 184.46 75.58C183.02 76.02 181.52 76.42 179.86 76.8C179.54 76.88 179.28 76.98 179.16 77.06C179.04 77.14 178.96 77.2 178.84 77.2C178.7 77.2 178.58 77.12 178.52 76.94C178.34 76.4 178.16 75.8 178.02 75.22C178.7 75.16 179.2 75.1 179.78 75C180.24 74.92 180.72 74.84 181.18 74.74V69.26H180.62C179.14 69.26 178.68 69.3 178.56 69.3C178.34 69.3 178.32 69.28 178.32 69.08V67.76C178.32 67.56 178.34 67.54 178.56 67.54C178.68 67.54 179.14 67.58 180.62 67.58H181.18V66.02C180.18 66.04 179.86 66.06 179.76 66.06C179.56 66.06 179.54 66.04 179.54 65.82V64.92C179.38 65.06 179.24 65.2 179.08 65.32C178.9 65.48 178.76 65.56 178.66 65.56C178.52 65.56 178.44 65.42 178.34 65.12C178.2 64.66 177.96 64.16 177.72 63.78C179.16 62.72 180.3 61.52 180.96 60.34C181.18 59.94 181.32 59.64 181.4 59.3C182.02 59.36 182.74 59.5 183.26 59.62C183.46 59.66 183.56 59.78 183.56 59.86C183.56 59.96 183.5 60.06 183.34 60.18L183.22 60.28C184.02 61.28 184.84 61.9 186.04 62.74C185.8 62.98 185.46 63.4 185.26 63.76C185.1 64.06 185.02 64.22 184.9 64.22C184.8 64.22 184.68 64.12 184.48 63.94C183.62 63.18 182.92 62.46 182.36 61.68C181.74 62.62 180.98 63.54 180.1 64.38C180.36 64.4 180.74 64.4 181.42 64.4H183.02C184.22 64.4 184.56 64.36 184.68 64.36C184.9 64.36 184.92 64.38 184.92 64.58V65.82C184.92 66.04 184.9 66.06 184.68 66.06C184.56 66.06 184.22 66.02 183.06 66.02V67.58H183.18C184.66 67.58 185.12 67.54 185.24 67.54H185.36V66.1C185.36 65.9 185.38 65.88 185.58 65.88C185.7 65.88 186.32 65.92 188.22 65.92H192.1L192.16 64.68H189.2C187.58 64.68 187.04 64.72 186.92 64.72C186.72 64.72 186.7 64.7 186.7 64.5V63.18C186.7 62.98 186.72 62.96 186.92 62.96C187.04 62.96 187.58 63 189.2 63H192.26L192.32 61.8H188.7C187.12 61.8 186.58 61.84 186.46 61.84C186.26 61.84 186.24 61.82 186.24 61.62V60.26C186.24 60.06 186.26 60.04 186.46 60.04C186.58 60.04 187.12 60.08 188.7 60.08H191.86C193.46 60.08 194 60.04 194.1 60.04C194.3 60.04 194.36 60.08 194.34 60.28C194.28 60.86 194.26 61.4 194.22 61.94L194 65.92C195.42 65.92 195.96 65.88 196.06 65.88C196.28 65.88 196.3 65.9 196.3 66.1V67.46C196.3 67.66 196.28 67.68 196.06 67.68C195.96 67.68 195.32 67.64 193.42 67.64ZM189.68 67.64H188.22C186.32 67.64 185.7 67.68 185.58 67.68H185.48V69.08C185.48 69.28 185.46 69.3 185.24 69.3C185.12 69.3 184.66 69.26 183.18 69.26H183.06V74.28C183.76 74.1 184.46 73.88 185.18 73.64C185.14 73.82 185.12 74 185.1 74.2L186 73.76C187.14 73.16 188.44 72.26 189.68 71.28V67.64ZM178.8 70.42L179.7 70.1C179.94 70.02 179.98 70.02 180.04 70.22C180.32 71.12 180.58 72.24 180.72 73.24C180.74 73.42 180.72 73.48 180.48 73.58L179.62 73.92C179.34 74.02 179.3 74 179.26 73.8C179.14 72.74 178.94 71.8 178.58 70.78C178.5 70.56 178.52 70.52 178.8 70.42ZM209.84 71.02C209.8 69.48 209.78 68.02 209.76 66.44C208.4 66.48 207 66.52 205.64 66.42C205.38 66.42 205.3 66.36 205.28 66.16C205.2 65.68 205.14 64.96 205.14 64.34C206.64 64.48 208.2 64.5 209.7 64.4C209.7 63.68 209.68 63.04 209.68 62.3C209.66 61.58 209.6 61.06 209.42 60.34C210.58 60.44 211.18 60.52 211.84 60.72C212.06 60.78 212.2 60.88 212.2 61.06C212.2 61.16 212.16 61.22 212.08 61.4C212 61.58 211.94 61.84 211.92 62.1C211.88 62.78 211.88 63.3 211.88 64.22C212.82 64.14 213.86 64 214.72 63.86C214.96 63.8 215 63.88 215.04 64.1C215.12 64.46 215.16 65.1 215.16 65.52C215.16 65.7 215.08 65.8 214.94 65.82C214.22 66 212.9 66.16 211.86 66.24C211.86 68.48 211.9 69.88 212 71.6C213.18 72.08 214.2 72.64 215.32 73.52C215.5 73.64 215.52 73.7 215.42 73.92C215.16 74.44 214.84 75 214.5 75.46C214.44 75.54 214.38 75.58 214.32 75.58C214.26 75.58 214.2 75.54 214.14 75.48C213.52 74.9 212.86 74.4 211.98 73.88C211.82 75.56 210.68 76.48 208.32 76.48C206.02 76.48 204.74 75.4 204.74 73.68C204.74 72.04 206.22 70.86 208.24 70.86C208.76 70.86 209.36 70.92 209.84 71.02ZM209.88 72.92C209.24 72.72 208.7 72.66 208.14 72.66C207.2 72.66 206.64 73 206.64 73.62C206.64 74.24 207.08 74.62 208.26 74.62C209.26 74.62 209.9 74.04 209.9 73.32C209.9 73.18 209.9 73.08 209.88 72.92ZM200.6 60.38C201.4 60.58 202.48 60.9 202.88 61.1C203.1 61.22 203.18 61.34 203.18 61.5C203.18 61.64 203.12 61.78 203.04 61.94C202.9 62.18 202.82 62.46 202.68 63.04C202.02 66.06 201.68 68.86 201.68 70.32C201.68 71.12 201.68 72.04 201.74 72.88C202.14 71.96 202.56 71.1 202.98 70.1C203.26 70.74 203.42 71.02 203.68 71.36C203.76 71.46 203.8 71.54 203.8 71.64C203.8 71.74 203.76 71.84 203.68 71.96C202.98 73.54 202.74 74.42 202.66 75C202.58 75.56 202.62 75.86 202.64 76.06C202.66 76.2 202.58 76.26 202.4 76.32C202.02 76.46 201.44 76.58 200.9 76.66C200.68 76.72 200.6 76.7 200.5 76.42C199.94 75 199.64 72.62 199.64 70.32C199.64 68.4 199.8 66.8 200.46 62.74C200.56 62.04 200.68 61.18 200.6 60.38ZM221.6 69.06C222.12 69.32 222.62 69.58 223.14 69.86C223.32 69.96 223.34 70.06 223.24 70.22C222.94 70.68 222.72 71.34 222.72 71.74C222.72 73 224.02 73.62 227.46 73.62C229.4 73.62 231.24 73.4 232.88 73.04C233.16 72.98 233.26 73.04 233.3 73.22C233.4 73.6 233.58 74.68 233.62 75.18C233.64 75.36 233.52 75.44 233.28 75.48C231.42 75.82 229.86 75.96 227.32 75.96C222.84 75.96 220.54 74.52 220.54 71.92C220.54 71.1 220.84 70.24 221.6 69.06ZM222.04 61.5C223.56 61.86 225.48 62.02 227.66 62.02C229.12 62.02 230.62 61.92 231.9 61.84C232.1 61.82 232.18 61.9 232.2 62.06C232.26 62.52 232.3 63.08 232.3 63.76C232.3 64.04 232.2 64.16 231.96 64.18C230.06 64.46 228.68 65.12 227.06 66.16C226.9 66.28 226.72 66.34 226.56 66.34C226.42 66.34 226.28 66.3 226.14 66.22C225.74 65.96 225.32 65.74 224.74 65.58C225.78 64.9 226.66 64.34 227.36 63.92C226.92 63.98 226.3 63.98 225.72 63.98C224.96 63.98 223.34 63.84 222.22 63.64C222.04 63.6 221.96 63.52 221.96 63.28C221.96 62.8 222 62.22 222.04 61.5ZM243.3 63.52C243.4 62.82 243.48 62.16 243.54 61.68C243.62 60.8 243.6 60.28 243.5 59.74C244.64 59.86 245.38 60 245.9 60.16C246.16 60.24 246.3 60.36 246.3 60.52C246.3 60.62 246.22 60.76 246.16 60.84C246.02 61.02 245.86 61.36 245.82 61.58C245.72 62.12 245.64 62.52 245.54 63.22C246.54 63.08 248.18 62.78 249.3 62.48C249.58 62.4 249.68 62.42 249.72 62.68C249.8 63.14 249.86 63.68 249.86 64.16C249.86 64.38 249.8 64.44 249.62 64.48C247.9 64.86 246.82 65.08 245.14 65.3C244.86 66.96 244.58 68.3 244.22 69.7C245.78 68.34 247.78 67.58 249.96 67.58C252.62 67.58 254.42 69.3 254.42 71.36C254.42 73.12 253.68 74.42 252.14 75.4C250.94 76.18 249.22 76.66 247.04 77C246.54 77.08 246.06 77.14 245.56 77.14C245.36 77.14 245.22 77.04 245.06 76.66C244.74 76 244.44 75.62 243.98 75.24C246.9 75.06 248.12 74.8 249.72 74.14C251.26 73.5 252 72.58 252 71.32C252 70.28 251.24 69.42 249.72 69.42C247.56 69.42 245.58 70.42 244.46 71.9C244.28 72.16 244.08 72.4 243.9 72.66C243.76 72.9 243.7 72.98 243.52 72.96C243.08 72.92 242.42 72.7 242.02 72.52C241.7 72.38 241.58 72.3 241.58 72.12C241.58 72.04 241.6 71.9 241.66 71.72C241.76 71.38 241.84 71.08 241.92 70.78C242.36 69.02 242.64 67.54 242.98 65.54C241.9 65.62 240.64 65.72 239.62 65.72C239.4 65.72 239.28 65.62 239.24 65.44C239.18 65.2 239.04 64.36 238.96 63.7C240.52 63.7 241.76 63.64 243.3 63.52ZM262.92 61.28C263.4 60.56 263.78 60.04 264.1 59.72C264.2 59.62 264.32 59.56 264.48 59.62C265.96 60.2 267.2 60.96 268.4 62C268.5 62.08 268.54 62.14 268.54 62.22C268.54 62.28 268.5 62.36 268.44 62.46C268.18 62.88 267.76 63.46 267.42 63.86C267.34 63.96 267.26 64.02 267.2 64.02C267.12 64.02 267.06 63.98 266.96 63.88C265.84 62.9 264.5 61.98 262.92 61.28ZM261.52 64.06C262.3 64.28 263.14 64.52 263.6 64.78C263.82 64.88 263.92 65 263.92 65.16C263.92 65.26 263.88 65.36 263.82 65.46C263.64 65.78 263.5 66.14 263.42 66.52C263.22 67.54 263.02 69.02 262.94 70.16C264.78 68.3 267.18 67 269.62 67C272.54 67 274.28 68.7 274.28 71.28C274.28 73.46 272.98 74.9 271.26 75.76C269.92 76.44 267.86 76.92 266.14 77.14C265.7 77.2 265.52 77.18 265.34 76.88C264.96 76.2 264.6 75.66 263.98 75.18C266.22 75.04 268.14 74.66 269.48 74.06C271.1 73.36 271.84 72.32 271.84 71.04C271.84 69.96 271.16 68.98 269.44 68.98C267.68 68.98 265.56 70.12 263.68 72.02C263.32 72.38 263.06 72.72 262.82 73.12C262.7 73.32 262.62 73.32 262.36 73.26C261.9 73.1 261.42 72.92 261 72.72C260.8 72.64 260.72 72.6 260.72 72.32C260.84 70 261.1 67.64 261.34 65.86C261.42 65.26 261.52 64.74 261.52 64.06ZM283.68 64.82C284 63.68 284.14 62.98 284.28 62.3C284.38 61.7 284.48 60.92 284.48 60.08C285.52 60.3 286.08 60.44 286.88 60.74C287.08 60.8 287.2 60.96 287.2 61.14C287.2 61.24 287.16 61.34 287.06 61.44C286.86 61.7 286.76 61.92 286.66 62.2C286.4 63.02 286.2 63.76 285.94 64.6C286.48 64.54 287.08 64.52 287.5 64.52C289.38 64.52 290.4 65.8 290.4 68.22C290.4 70.58 290 73.2 289.32 74.64C288.74 75.92 287.78 76.52 286.62 76.52C285.66 76.52 285.08 76.44 284.64 76.3C284.4 76.22 284.28 76.04 284.28 75.74C284.22 75.1 284.18 74.54 283.9 73.88C284.8 74.22 285.48 74.32 286.1 74.32C286.76 74.32 287.06 74.08 287.38 73.26C287.8 72.14 288.16 70.24 288.16 68.3C288.16 66.88 287.9 66.44 287.02 66.44C286.54 66.44 285.92 66.5 285.34 66.58C284.02 70.42 282.88 73.18 281.32 75.98C281.2 76.24 281.04 76.28 280.8 76.16C280.44 75.98 279.66 75.5 279.42 75.28C279.32 75.18 279.26 75.1 279.26 74.98C279.26 74.92 279.28 74.84 279.34 74.76C280.94 71.98 281.98 69.86 283 66.92C282.22 67.04 281.58 67.16 281.04 67.26C280.52 67.36 280.2 67.48 279.94 67.58C279.66 67.68 279.42 67.64 279.3 67.32C279.12 66.86 278.9 66.14 278.68 65.26C279.56 65.26 280.44 65.2 281.32 65.12C282.16 65.04 282.9 64.94 283.68 64.82ZM290.8 64.66C291.3 64.32 291.88 63.92 292.42 63.64C292.56 63.56 292.66 63.6 292.8 63.74C294.16 65.02 295.38 66.68 296.12 68.6C296.2 68.78 296.18 68.88 296.04 69C295.7 69.32 294.94 69.8 294.54 70C294.34 70.1 294.14 70.08 294.08 69.84C293.28 67.74 292.24 66.02 290.8 64.66ZM302.92 61.28C303.4 60.56 303.78 60.04 304.1 59.72C304.2 59.62 304.32 59.56 304.48 59.62C305.96 60.2 307.2 60.96 308.4 62C308.5 62.08 308.54 62.14 308.54 62.22C308.54 62.28 308.5 62.36 308.44 62.46C308.18 62.88 307.76 63.46 307.42 63.86C307.34 63.96 307.26 64.02 307.2 64.02C307.12 64.02 307.06 63.98 306.96 63.88C305.84 62.9 304.5 61.98 302.92 61.28ZM301.52 64.06C302.3 64.28 303.14 64.52 303.6 64.78C303.82 64.88 303.92 65 303.92 65.16C303.92 65.26 303.88 65.36 303.82 65.46C303.64 65.78 303.5 66.14 303.42 66.52C303.22 67.54 303.02 69.02 302.94 70.16C304.78 68.3 307.18 67 309.62 67C312.54 67 314.28 68.7 314.28 71.28C314.28 73.46 312.98 74.9 311.26 75.76C309.92 76.44 307.86 76.92 306.14 77.14C305.7 77.2 305.52 77.18 305.34 76.88C304.96 76.2 304.6 75.66 303.98 75.18C306.22 75.04 308.14 74.66 309.48 74.06C311.1 73.36 311.84 72.32 311.84 71.04C311.84 69.96 311.16 68.98 309.44 68.98C307.68 68.98 305.56 70.12 303.68 72.02C303.32 72.38 303.06 72.72 302.82 73.12C302.7 73.32 302.62 73.32 302.36 73.26C301.9 73.1 301.42 72.92 301 72.72C300.8 72.64 300.72 72.6 300.72 72.32C300.84 70 301.1 67.64 301.34 65.86C301.42 65.26 301.52 64.74 301.52 64.06Z" fill="#121110"/>
<circle cx="390" cy="68" r="18" fill="#5D4523"/>
<path fill-rule="evenodd" clip-rule="evenodd" d="M407.938 69.5C407.979 69.0054 408 68.5051 408 68C408 58.0589 399.941 50 390 50C380.059 50 372 58.0589 372 68C372 68.5051 372.021 69.0054 372.062 69.5C372.824 60.2607 380.564 53 390 53C399.436 53 407.176 60.2607 407.938 69.5Z" fill="#2C1D0E"/>
<path fill-rule="evenodd" clip-rule="evenodd" d="M407.938 69.5C407.979 69.0054 408 68.5051 408 68C408 58.0589 399.941 50 390 50C380.059 50 372 58.0589 372 68C372 68.5051 372.021 69.0054 372.062 69.5C372.824 60.2607 380.564 53 390 53C399.436 53 407.176 60.2607 407.938 69.5Z" fill="#2C1D0E"/>
<path fill-rule="evenodd" clip-rule="evenodd" d="M407.938 69.5C407.979 69.0054 408 68.5051 408 68C408 58.0589 399.941 50 390 50C380.059 50 372 58.0589 372 68C372 68.5051 372.021 69.0054 372.062 69.5C372.824 60.2607 380.564 53 390 53C399.436 53 407.176 60.2607 407.938 69.5Z" fill="#2C1D0E"/>
<path fill-rule="evenodd" clip-rule="evenodd" d="M407.938 69.5C407.979 69.0054 408 68.5051 408 68C408 58.0589 399.941 50 390 50C380.059 50 372 58.0589 372 68C372 68.5051 372.021 69.0054 372.062 69.5C372.824 60.2607 380.564 53 390 53C399.436 53 407.176 60.2607 407.938 69.5Z" fill="#2C1D0E"/>
<path fill-rule="evenodd" clip-rule="evenodd" d="M407.938 69.5C407.979 69.0054 408 68.5051 408 68C408 58.0589 399.941 50 390 50C380.059 50 372 58.0589 372 68C372 68.5051 372.021 69.0054 372.062 69.5C372.824 60.2607 380.564 53 390 53C399.436 53 407.176 60.2607 407.938 69.5Z" fill="#2C1D0E"/>
<path fill-rule="evenodd" clip-rule="evenodd" d="M407.938 69.5C407.979 69.0054 408 68.5051 408 68C408 58.0589 399.941 50 390 50C380.059 50 372 58.0589 372 68C372 68.5051 372.021 69.0054 372.062 69.5C372.824 60.2607 380.564 53 390 53C399.436 53 407.176 60.2607 407.938 69.5Z" fill="#0D0803"/>
<path d="M389 62L394 68.5L389 75" stroke="white" stroke-linecap="round"/>
<circle cx="395" cy="85" r="1" fill="white"/>
<circle cx="405" cy="78" r="1" fill="white"/>
<path d="M402 82C402 82.5523 401.552 83 401 83C400.448 83 400 82.5523 400 82C400 81.4477 400.448 81 401 81C401.552 81 402 81.4477 402 82Z" fill="white"/>
<defs>
<linearGradient id="paint0_linear_1_410" x1="215" y1="0" x2="215" y2="109" gradientUnits="userSpaceOnUse">
<stop stop-color="#121110" stop-opacity="0"/>
<stop offset="1" stop-color="#121110"/>
</linearGradient>
<linearGradient id="paint1_linear_1_410" x1="214" y1="42" x2="214" y2="94" gradientUnits="userSpaceOnUse">
<stop stop-color="#E3B06C"/>
<stop offset="0.470069" stop-color="#C99958"/>
<stop offset="0.84" stop-color="#A47B44"/>
</linearGradient>
</defs>
</svg>
