<svg width="99" height="20" viewBox="0 0 99 20" fill="none" xmlns="http://www.w3.org/2000/svg">
<path d="M2.14588 13.2487V19.4116H0V0.575684H4.88187C6.30735 0.787323 7.49524 1.42224 8.45322 2.48891C9.56448 3.71642 10.1239 5.18943 10.1239 6.89948C10.1239 8.60953 9.55682 10.1079 8.43023 11.3609C7.30365 12.6222 5.90883 13.2487 4.2611 13.2487H2.15354H2.14588ZM2.14588 2.64129V11.1746H4.25344C5.24974 11.1746 6.11575 10.7683 6.85914 9.9471C7.60254 9.1344 7.9704 8.11006 7.9704 6.89102C7.9704 5.67197 7.60254 4.66457 6.85914 3.85187C6.11575 3.03917 5.24974 2.63282 4.25344 2.63282H2.14588V2.64129Z" fill="#B78C52"/>
<path d="M15.8258 0.575684V19.4116H13.6799V0.575684H15.8258Z" fill="#B78C52"/>
<path d="M33.6749 15.2634L35.1693 16.7279C33.2534 18.6581 31.1382 19.6232 28.8313 19.6232C26.3483 19.6232 24.256 18.675 22.547 16.7872C20.838 14.8994 19.9796 12.6306 19.9796 9.98932C19.9796 7.34805 20.838 5.11313 22.547 3.20838C24.256 1.30362 26.3559 0.355469 28.8313 0.355469C31.1382 0.355469 33.2534 1.32055 35.1693 3.25917L33.6749 4.72372C32.1115 3.19991 30.4944 2.42954 28.8237 2.42954C27.0073 2.42954 25.4363 3.15758 24.1104 4.62213C22.7846 6.08668 22.1255 7.87292 22.1255 9.98085C22.1255 12.0888 22.7846 13.9004 24.1104 15.365C25.4363 16.8295 27.0073 17.5491 28.8237 17.5491C30.4867 17.5491 32.1038 16.7872 33.6749 15.2549V15.2634Z" fill="#B78C52"/>
<path d="M44.0595 13.2487H42.0592V19.4116H39.9134V0.575684H44.7952C46.2207 0.787323 47.4086 1.42224 48.3666 2.48891C49.4778 3.71642 50.0373 5.18943 50.0373 6.89948C50.0373 8.60953 49.4625 10.1079 48.3206 11.3778C47.5619 12.2243 46.8875 12.7238 46.305 12.8847L50.1369 19.4201H47.6615L44.0748 13.2571L44.0595 13.2487ZM42.0592 2.64129V11.1746H44.1668C45.1631 11.1746 46.0291 10.7683 46.7725 9.9471C47.5159 9.1344 47.8838 8.11006 47.8838 6.89102C47.8838 5.67197 47.5159 4.66457 46.7725 3.85187C46.0291 3.03917 45.1631 2.63282 44.1668 2.63282H42.0592V2.64129Z" fill="#B78C52"/>
<path d="M68.6374 3.16638C70.3541 5.07114 71.2125 7.33146 71.2125 9.96426C71.2125 12.5971 70.3541 14.8828 68.6374 16.7791C66.9207 18.6753 64.8208 19.6235 62.3377 19.6235C59.8547 19.6235 57.7701 18.6753 56.0534 16.7791C54.3367 14.8828 53.4783 12.614 53.4783 9.96426C53.4783 7.31452 54.3367 5.07114 56.0534 3.16638C57.7701 1.26162 59.87 0.313477 62.3377 0.313477C64.8055 0.313477 66.9207 1.26162 68.6374 3.16638ZM62.3377 2.37908C60.5214 2.37908 58.9503 3.11558 57.6245 4.5886C56.2986 6.06161 55.6319 7.84786 55.6319 9.96426C55.6319 12.0807 56.2986 13.8923 57.6245 15.3568C58.9503 16.8214 60.5214 17.5579 62.3377 17.5579C64.1541 17.5579 65.7405 16.8214 67.0663 15.3568C68.3922 13.8923 69.0589 12.0891 69.0589 9.96426C69.0589 7.83939 68.3922 6.06161 67.0663 4.5886C65.7405 3.11558 64.1617 2.37908 62.3377 2.37908Z" fill="#B78C52"/>
<path d="M79.3361 9.49831C78.1099 9.04964 77.129 8.42318 76.3856 7.60202C75.6422 6.78086 75.2743 5.79038 75.2743 4.6306C75.2743 3.47081 75.6575 2.49727 76.4316 1.64224C77.1979 0.787218 78.1559 0.355469 79.3055 0.355469C80.4551 0.355469 81.4054 0.795684 82.2101 1.67611C82.6316 2.13325 82.9535 2.76816 83.1987 3.58933L81.2751 4.41049C81.0375 3.70784 80.8229 3.24224 80.6313 3.03907C80.2481 2.59886 79.8036 2.38721 79.3055 2.38721C78.8073 2.38721 78.3782 2.59885 77.995 3.02213C77.6118 3.44541 77.4202 3.98721 77.4202 4.63906C77.4202 5.29091 77.6194 5.83271 78.0103 6.28985C78.4242 6.73006 78.9836 7.12794 79.6963 7.49196C81.0528 7.98297 82.1948 8.72794 83.1068 9.74382C84.1567 10.8951 84.6855 12.2581 84.6855 13.8242C84.6855 15.3904 84.1644 16.7533 83.1298 17.9046C82.0951 19.056 80.8153 19.6232 79.3055 19.6232C77.7957 19.6232 76.5082 19.0306 75.4506 17.8539C74.6305 16.9565 74.1247 15.7882 73.9331 14.3576L75.9947 13.5364C76.1173 14.9078 76.4699 15.9068 77.0523 16.5332C77.6884 17.2359 78.4318 17.583 79.3055 17.583C80.1792 17.583 80.9456 17.2274 81.597 16.4994C82.2484 15.7798 82.578 14.8909 82.578 13.8242C82.578 12.7576 82.2561 11.8771 81.62 11.166C80.9685 10.4634 80.2098 9.90466 79.3438 9.50678L79.3361 9.49831Z" fill="#B78C52"/>
<path d="M93.2153 9.49831C91.9891 9.04964 91.0081 8.42318 90.2647 7.60202C89.5213 6.78086 89.1535 5.79038 89.1535 4.6306C89.1535 3.47081 89.5367 2.49727 90.3107 1.64224C91.0771 0.787218 92.0351 0.355469 93.1847 0.355469C94.3342 0.355469 95.2845 0.795684 96.0893 1.67611C96.5108 2.13325 96.8326 2.76816 97.0779 3.58933L95.1543 4.41049C94.9167 3.70784 94.7021 3.24224 94.5105 3.03907C94.1273 2.59886 93.6828 2.38721 93.1847 2.38721C92.6865 2.38721 92.2573 2.59885 91.8741 3.02213C91.4909 3.44541 91.2993 3.98721 91.2993 4.63906C91.2993 5.29091 91.4986 5.83271 91.8895 6.28985C92.3033 6.73006 92.8628 7.12794 93.5755 7.49196C94.932 7.98297 96.0739 8.72794 96.9859 9.74382C98.0359 10.8951 98.5647 12.2581 98.5647 13.8242C98.5647 15.3904 98.0435 16.7533 97.0089 17.9046C95.9743 19.056 94.6944 19.6232 93.1847 19.6232C91.6749 19.6232 90.3874 19.0306 89.3297 17.8539C88.5097 16.9565 88.0039 15.7882 87.8123 14.3576L89.8739 13.5364C89.9965 14.9078 90.349 15.9068 90.9315 16.5332C91.5676 17.2359 92.311 17.583 93.1847 17.583C94.0583 17.583 94.8247 17.2274 95.4761 16.4994C96.1276 15.7798 96.4571 14.8909 96.4571 13.8242C96.4571 12.7576 96.1352 11.8771 95.4991 11.166C94.8477 10.4634 94.089 9.90466 93.223 9.50678L93.2153 9.49831Z" fill="#B78C52"/>
</svg>
