<svg width="81" height="70" viewBox="0 0 81 70" fill="none" xmlns="http://www.w3.org/2000/svg">
<path d="M1.74666 65.3022V69.8435H0V55.9639H3.97364C5.13392 56.1198 6.10082 56.5877 6.88058 57.3737C7.7851 58.2782 8.24047 59.3636 8.24047 60.6237C8.24047 61.8838 7.77886 62.9879 6.86186 63.9112C5.94487 64.8406 4.80954 65.3022 3.46836 65.3022H1.75289H1.74666ZM1.74666 57.486V63.7739H3.46212C4.27307 63.7739 4.97797 63.4745 5.58306 62.8694C6.18815 62.2705 6.48758 61.5157 6.48758 60.6175C6.48758 59.7192 6.18815 58.9769 5.58306 58.378C4.97797 57.7791 4.27307 57.4797 3.46212 57.4797H1.74666V57.486Z" fill="#B78C52"/>
<path d="M12.8816 55.9639V69.8435H11.1349V55.9639H12.8816Z" fill="#B78C52"/>
<path d="M27.41 66.7875L28.6265 67.8667C27.0669 69.2889 25.3452 70.0001 23.4676 70.0001C21.4465 70.0001 19.7435 69.3014 18.3524 67.9103C16.9613 66.5192 16.2626 64.8474 16.2626 62.9012C16.2626 60.9549 16.9613 59.308 18.3524 57.9045C19.7435 56.5009 21.4527 55.8022 23.4676 55.8022C25.3452 55.8022 27.0669 56.5134 28.6265 57.9419L27.41 59.0211C26.1375 57.8982 24.8212 57.3306 23.4614 57.3306C21.9829 57.3306 20.7041 57.867 19.6249 58.9462C18.5458 60.0254 18.0093 61.3416 18.0093 62.8949C18.0093 64.4482 18.5458 65.7831 19.6249 66.8623C20.7041 67.9415 21.9829 68.4717 23.4614 68.4717C24.815 68.4717 26.1312 67.9103 27.41 66.7812V66.7875Z" fill="#B78C52"/>
<path d="M35.8626 65.3022H34.2345V69.8435H32.4878V55.9639H36.4615C37.6217 56.1198 38.5886 56.5877 39.3684 57.3737C40.2729 58.2782 40.7283 59.3636 40.7283 60.6237C40.7283 61.8838 40.2604 62.9879 39.331 63.9236C38.7134 64.5474 38.1645 64.9155 37.6904 65.034L40.8094 69.8498H38.7945L35.8751 65.3085L35.8626 65.3022ZM34.2345 57.486V63.7739H35.9499C36.7609 63.7739 37.4658 63.4745 38.0709 62.8694C38.676 62.2705 38.9754 61.5157 38.9754 60.6175C38.9754 59.7192 38.676 58.9769 38.0709 58.378C37.4658 57.7791 36.7609 57.4797 35.9499 57.4797H34.2345V57.486Z" fill="#B78C52"/>
<path d="M55.868 57.8732C57.2653 59.2768 57.964 60.9423 57.964 62.8824C57.964 64.8224 57.2653 66.5067 55.868 67.904C54.4707 69.3013 52.7614 70 50.7403 70C48.7192 70 47.0224 69.3013 45.6251 67.904C44.2278 66.5067 43.5291 64.8349 43.5291 62.8824C43.5291 60.9299 44.2278 59.2768 45.6251 57.8732C47.0224 56.4697 48.7317 55.771 50.7403 55.771C52.749 55.771 54.4707 56.4697 55.868 57.8732ZM50.7403 57.2931C49.2619 57.2931 47.9831 57.8358 46.9039 58.9212C45.8247 60.0066 45.282 61.3229 45.282 62.8824C45.282 64.4419 45.8247 65.7768 46.9039 66.856C47.9831 67.9352 49.2619 68.4779 50.7403 68.4779C52.2187 68.4779 53.51 67.9352 54.5892 66.856C55.6684 65.7768 56.2111 64.4481 56.2111 62.8824C56.2111 61.3166 55.6684 60.0066 54.5892 58.9212C53.51 57.8358 52.225 57.2931 50.7403 57.2931Z" fill="#B78C52"/>
<path d="M64.5764 62.5393C63.5783 62.2087 62.7798 61.7471 62.1747 61.142C61.5696 60.5369 61.2702 59.8071 61.2702 58.9525C61.2702 58.0979 61.5821 57.3805 62.2121 56.7504C62.8359 56.1204 63.6157 55.8022 64.5514 55.8022C65.4871 55.8022 66.2606 56.1266 66.9156 56.7754C67.2587 57.1122 67.5207 57.5801 67.7203 58.1852L66.1546 58.7903C65.9612 58.2725 65.7865 57.9294 65.6306 57.7797C65.3187 57.4553 64.9569 57.2994 64.5514 57.2994C64.1459 57.2994 63.7966 57.4553 63.4847 57.7672C63.1728 58.0791 63.0168 58.4784 63.0168 58.9587C63.0168 59.439 63.179 59.8383 63.4972 60.1751C63.834 60.4995 64.2894 60.7927 64.8695 61.0609C65.9737 61.4227 66.9032 61.9717 67.6455 62.7203C68.5001 63.5686 68.9305 64.573 68.9305 65.727C68.9305 66.881 68.5063 67.8854 67.6642 68.7337C66.8221 69.5821 65.7803 70.0001 64.5514 70.0001C63.3225 70.0001 62.2745 69.5634 61.4137 68.6963C60.7462 68.0351 60.3345 67.1742 60.1785 66.12L61.8566 65.5149C61.9564 66.5255 62.2433 67.2616 62.7174 67.7232C63.2352 68.2409 63.8403 68.4967 64.5514 68.4967C65.2625 68.4967 65.8864 68.2347 66.4166 67.6982C66.9468 67.168 67.2151 66.513 67.2151 65.727C67.2151 64.941 66.9531 64.2922 66.4353 63.7682C65.9051 63.2505 65.2875 62.8388 64.5826 62.5456L64.5764 62.5393Z" fill="#B78C52"/>
<path d="M75.8735 62.5393C74.8754 62.2087 74.0769 61.7471 73.4718 61.142C72.8667 60.5369 72.5673 59.8071 72.5673 58.9525C72.5673 58.0979 72.8792 57.3805 73.5093 56.7504C74.1331 56.1204 74.9128 55.8022 75.8485 55.8022C76.7842 55.8022 77.5577 56.1266 78.2127 56.7754C78.5558 57.1122 78.8178 57.5801 79.0175 58.1852L77.4517 58.7903C77.2583 58.2725 77.0837 57.9294 76.9277 57.7797C76.6158 57.4553 76.254 57.2994 75.8485 57.2994C75.443 57.2994 75.0937 57.4553 74.7818 57.7672C74.4699 58.0791 74.314 58.4784 74.314 58.9587C74.314 59.439 74.4762 59.8383 74.7943 60.1751C75.1311 60.4995 75.5865 60.7927 76.1667 61.0609C77.2708 61.4227 78.2003 61.9717 78.9426 62.7203C79.7972 63.5686 80.2276 64.573 80.2276 65.727C80.2276 66.881 79.8035 67.8854 78.9613 68.7337C78.1192 69.5821 77.0774 70.0001 75.8485 70.0001C74.6196 70.0001 73.5716 69.5634 72.7108 68.6963C72.0433 68.0351 71.6316 67.1742 71.4756 66.12L73.1537 65.5149C73.2535 66.5255 73.5404 67.2616 74.0145 67.7232C74.5323 68.2409 75.1374 68.4967 75.8485 68.4967C76.5597 68.4967 77.1835 68.2347 77.7137 67.6982C78.2439 67.168 78.5122 66.513 78.5122 65.727C78.5122 64.941 78.2502 64.2922 77.7324 63.7682C77.2022 63.2505 76.5846 62.8388 75.8797 62.5456L75.8735 62.5393Z" fill="#B78C52"/>
<path d="M52.1564 5.04358C48.9687 1.85593 44.5335 -0.090342 39.6366 0.00322888C30.2046 0.190371 22.7626 8.13142 22.7626 17.5634V34.4373V37.7497C22.7626 38.9162 23.9291 39.7334 25.027 39.3279L38.3827 34.4373H38.3952V24.0135L36.0622 21.0005L34.6524 19.179L33.2176 17.3201L33.0367 17.083L31.0717 14.5441C30.6538 14.0077 31.0405 13.2217 31.7205 13.2217H46.8103C47.4903 13.2217 47.8771 14.0077 47.4591 14.5441L43.8785 19.1728L40.1356 24.0073V34.4248C44.8329 34.3936 49.081 32.4723 52.1626 29.3907C55.2816 26.2779 57.2092 21.9674 57.2092 17.214C57.2092 12.4606 55.2816 8.15637 52.1626 5.03734L52.1564 5.04358Z" fill="#B78C52"/>
</svg>
