<svg width="13" height="18" viewBox="0 0 13 18" fill="none" xmlns="http://www.w3.org/2000/svg">
<path fill-rule="evenodd" clip-rule="evenodd" d="M7.2794 16.7462C10.2499 13.1405 13 9.80227 13 6.5C13 2.91015 10.0899 0 6.5 0C2.91015 0 0 2.91015 0 6.5C0 9.80227 2.75015 13.1405 5.7206 16.7462C5.97929 17.0602 6.23964 17.3762 6.5 17.6944C6.76036 17.3762 7.02071 17.0602 7.2794 16.7462ZM6.50004 8.6667C7.89609 8.6667 9.02781 7.53498 9.02781 6.13892C9.02781 4.74287 7.89609 3.61114 6.50004 3.61114C5.10398 3.61114 3.97226 4.74287 3.97226 6.13892C3.97226 7.53498 5.10398 8.6667 6.50004 8.6667Z" fill="white"/>
</svg>
